<svg width="24" height="18" viewBox="0 0 24 18" fill="none" xmlns="http://www.w3.org/2000/svg">
<path d="M17.4686 7.98236C19.1274 7.98236 20.4731 6.6376 20.4731 4.97873C20.4731 3.31985 19.1274 1.9751 17.4686 1.9751" stroke="#200E32" stroke-width="2" stroke-linecap="round" stroke-linejoin="round"/>
<path d="M18.8496 11.2467C19.345 11.2809 19.8375 11.3511 20.3225 11.4602C20.9963 11.5921 21.8068 11.8683 22.0953 12.4728C22.2794 12.86 22.2794 13.3108 22.0953 13.699C21.8077 14.3035 20.9963 14.5787 20.3225 14.7172" stroke="#200E32" stroke-width="2" stroke-linecap="round" stroke-linejoin="round"/>
<path d="M5.76477 7.98236C4.10589 7.98236 2.76019 6.6376 2.76019 4.97873C2.76019 3.31985 4.10589 1.9751 5.76477 1.9751" stroke="#200E32" stroke-width="2" stroke-linecap="round" stroke-linejoin="round"/>
<path d="M4.38347 11.2467C3.88809 11.2809 3.39555 11.3511 2.9106 11.4602C2.2368 11.5921 1.42634 11.8683 1.13879 12.4728C0.953736 12.86 0.953736 13.3108 1.13879 13.699C1.4254 14.3035 2.2368 14.5787 2.9106 14.7172" stroke="#200E32" stroke-width="2" stroke-linecap="round" stroke-linejoin="round"/>
<path fill-rule="evenodd" clip-rule="evenodd" d="M11.6119 11.8933C14.9733 11.8933 17.845 12.402 17.845 14.4376C17.845 16.4723 14.9923 17 11.6119 17C8.24951 17 5.37875 16.4913 5.37875 14.4556C5.37875 12.42 8.23148 11.8933 11.6119 11.8933Z" stroke="#200E32" stroke-width="2" stroke-linecap="round" stroke-linejoin="round"/>
<path fill-rule="evenodd" clip-rule="evenodd" d="M11.6116 8.98975C9.39465 8.98975 7.61715 7.21225 7.61715 4.9944C7.61715 2.7775 9.39465 1 11.6116 1C13.8284 1 15.606 2.7775 15.606 4.9944C15.606 7.21225 13.8284 8.98975 11.6116 8.98975Z" stroke="#200E32" stroke-width="2" stroke-linecap="round" stroke-linejoin="round"/>
</svg>
