<svg width="18" height="18" viewBox="0 0 18 18" fill="none" xmlns="http://www.w3.org/2000/svg">
<path fill-rule="evenodd" clip-rule="evenodd" d="M12.4284 1H15.0416C16.1229 1 17 1.88472 17 2.97614V5.61127C17 6.70187 16.1229 7.58742 15.0416 7.58742H12.4284C11.3463 7.58742 10.4692 6.70187 10.4692 5.61127V2.97614C10.4692 1.88472 11.3463 1 12.4284 1Z" stroke="#111111" stroke-width="2" stroke-linecap="round" stroke-linejoin="round"/>
<path fill-rule="evenodd" clip-rule="evenodd" d="M2.95913 1H5.57158C6.65362 1 7.53072 1.88472 7.53072 2.97614V5.61127C7.53072 6.70187 6.65362 7.58742 5.57158 7.58742H2.95913C1.8771 7.58742 1 6.70187 1 5.61127V2.97614C1 1.88472 1.8771 1 2.95913 1Z" stroke="#111111" stroke-width="2" stroke-linecap="round" stroke-linejoin="round"/>
<path fill-rule="evenodd" clip-rule="evenodd" d="M2.95913 10.4124H5.57158C6.65362 10.4124 7.53072 11.2971 7.53072 12.3893V15.0236C7.53072 16.1151 6.65362 16.9998 5.57158 16.9998H2.95913C1.8771 16.9998 1 16.1151 1 15.0236V12.3893C1 11.2971 1.8771 10.4124 2.95913 10.4124Z" stroke="#111111" stroke-width="2" stroke-linecap="round" stroke-linejoin="round"/>
<path fill-rule="evenodd" clip-rule="evenodd" d="M12.4284 10.4124H15.0416C16.1229 10.4124 17 11.2971 17 12.3893V15.0236C17 16.1151 16.1229 16.9998 15.0416 16.9998H12.4284C11.3463 16.9998 10.4692 16.1151 10.4692 15.0236V12.3893C10.4692 11.2971 11.3463 10.4124 12.4284 10.4124Z" stroke="#111111" stroke-width="2" stroke-linecap="round" stroke-linejoin="round"/>
</svg>
