<svg width="17" height="18" viewBox="0 0 17 18" fill="none" xmlns="http://www.w3.org/2000/svg">
<path d="M14.4708 6.80981C14.4708 6.80981 14.0012 12.635 13.7287 15.0887C13.599 16.2607 12.8751 16.9474 11.6893 16.969C9.43274 17.0097 7.17359 17.0123 4.91791 16.9647C3.77709 16.9414 3.06527 16.246 2.93813 15.0948C2.66395 12.6194 2.1969 6.80981 2.1969 6.80981" stroke="#200E32" stroke-width="2" stroke-linecap="round" stroke-linejoin="round"/>
<path d="M15.6671 4.01766H1" stroke="#200E32" stroke-width="2" stroke-linecap="round" stroke-linejoin="round"/>
<path d="M12.8408 4.01767C12.1618 4.01767 11.5771 3.53765 11.4439 2.87253L11.2338 1.8208C11.104 1.33558 10.6646 1 10.1639 1H6.5027C6.00192 1 5.56254 1.33558 5.43281 1.8208L5.22263 2.87253C5.08944 3.53765 4.50476 4.01767 3.82581 4.01767" stroke="#200E32" stroke-width="2" stroke-linecap="round" stroke-linejoin="round"/>
</svg>
