<svg width="431" height="212" viewBox="0 0 431 212" fill="none" xmlns="http://www.w3.org/2000/svg">
<g filter="url(#filter0_d_2_2071)">
<path d="M401 33C401 28.5817 397.418 25 393 25H38C33.5817 25 30 28.5817 30 33V117.117C30 121.536 33.5817 125.117 38 125.117H393C397.418 125.117 401 121.536 401 117.117V33Z" fill="white"/>
<path d="M150.096 119.508H83.727V177L150.096 119.508Z" fill="white"/>
<path d="M101.972 73.56V84H96.5716V57.288H101.972V66.792C103.604 65.136 105.428 64.308 107.444 64.308C109.484 64.308 111.2 65.028 112.592 66.468C113.984 67.908 114.68 69.828 114.68 72.228V84H109.28V73.416C109.28 70.44 108.188 68.952 106.004 68.952C104.924 68.952 103.976 69.348 103.16 70.14C102.368 70.908 101.972 72.048 101.972 73.56ZM136.34 81.192C134.156 83.256 131.588 84.288 128.636 84.288C125.708 84.288 123.284 83.388 121.364 81.588C119.444 79.764 118.484 77.328 118.484 74.28C118.484 71.232 119.456 68.808 121.4 67.008C123.368 65.208 125.684 64.308 128.348 64.308C131.012 64.308 133.268 65.112 135.116 66.72C136.988 68.328 137.924 70.536 137.924 73.344V76.224H123.812C123.98 77.28 124.532 78.144 125.468 78.816C126.404 79.488 127.46 79.824 128.636 79.824C130.532 79.824 132.092 79.188 133.316 77.916L136.34 81.192ZM132.452 72.372C132.332 71.22 131.9 70.332 131.156 69.708C130.412 69.084 129.5 68.772 128.42 68.772C127.364 68.772 126.392 69.096 125.504 69.744C124.616 70.392 124.1 71.268 123.956 72.372H132.452ZM147.218 84H141.818V57.288H147.218V84ZM157.729 84H152.329V57.288H157.729V84ZM167.161 74.316C167.161 75.9 167.605 77.196 168.493 78.204C169.405 79.188 170.557 79.68 171.949 79.68C173.365 79.68 174.517 79.188 175.405 78.204C176.317 77.196 176.773 75.9 176.773 74.316C176.773 72.732 176.317 71.436 175.405 70.428C174.517 69.42 173.365 68.916 171.949 68.916C170.557 68.916 169.405 69.42 168.493 70.428C167.605 71.436 167.161 72.732 167.161 74.316ZM182.209 74.316C182.209 77.124 181.237 79.488 179.293 81.408C177.349 83.328 174.901 84.288 171.949 84.288C169.021 84.288 166.585 83.328 164.641 81.408C162.697 79.488 161.725 77.124 161.725 74.316C161.725 71.508 162.697 69.144 164.641 67.224C166.585 65.28 169.021 64.308 171.949 64.308C174.901 64.308 177.349 65.28 179.293 67.224C181.237 69.144 182.209 71.508 182.209 74.316ZM197.488 64.308C199.744 64.308 201.748 65.256 203.5 67.152C205.276 69.024 206.164 71.388 206.164 74.244C206.164 77.1 205.276 79.488 203.5 81.408C201.748 83.328 199.684 84.288 197.308 84.288C194.956 84.288 193.06 83.34 191.62 81.444V90.984H186.22V64.632H191.62V66.792C193.276 65.136 195.232 64.308 197.488 64.308ZM191.548 74.352C191.548 75.912 191.98 77.196 192.844 78.204C193.732 79.188 194.8 79.68 196.048 79.68C197.296 79.68 198.388 79.188 199.324 78.204C200.26 77.196 200.728 75.912 200.728 74.352C200.728 72.792 200.272 71.484 199.36 70.428C198.448 69.372 197.356 68.844 196.084 68.844C194.812 68.844 193.732 69.372 192.844 70.428C191.98 71.46 191.548 72.768 191.548 74.352ZM220.385 69.384C218.777 69.384 217.577 69.96 216.785 71.112C215.993 72.24 215.597 73.74 215.597 75.612V84H210.197V64.632H215.597V67.188C216.293 66.396 217.157 65.724 218.189 65.172C219.245 64.62 220.313 64.332 221.393 64.308L221.429 69.384H220.385ZM229.036 74.316C229.036 75.9 229.48 77.196 230.368 78.204C231.28 79.188 232.432 79.68 233.824 79.68C235.24 79.68 236.392 79.188 237.28 78.204C238.192 77.196 238.648 75.9 238.648 74.316C238.648 72.732 238.192 71.436 237.28 70.428C236.392 69.42 235.24 68.916 233.824 68.916C232.432 68.916 231.28 69.42 230.368 70.428C229.48 71.436 229.036 72.732 229.036 74.316ZM244.084 74.316C244.084 77.124 243.112 79.488 241.168 81.408C239.224 83.328 236.776 84.288 233.824 84.288C230.896 84.288 228.46 83.328 226.516 81.408C224.572 79.488 223.6 77.124 223.6 74.316C223.6 71.508 224.572 69.144 226.516 67.224C228.46 65.28 230.896 64.308 233.824 64.308C236.776 64.308 239.224 65.28 241.168 67.224C243.112 69.144 244.084 71.508 244.084 74.316ZM254.223 63.516V64.812H258.903V68.7H254.223V84H248.787V68.7H246.519V64.812H248.787V63.624C248.787 61.512 249.423 59.844 250.695 58.62C251.991 57.372 253.587 56.748 255.483 56.748C257.403 56.748 259.143 57.468 260.703 58.908L258.759 62.544C257.967 61.632 257.091 61.176 256.131 61.176C255.579 61.176 255.123 61.38 254.763 61.788C254.403 62.172 254.223 62.748 254.223 63.516ZM267.663 84H262.263V64.632H267.663V84ZM262.695 62.184C262.095 61.56 261.795 60.804 261.795 59.916C261.795 59.028 262.095 58.284 262.695 57.684C263.319 57.06 264.075 56.748 264.963 56.748C265.851 56.748 266.595 57.06 267.195 57.684C267.819 58.284 268.131 59.028 268.131 59.916C268.131 60.804 267.819 61.56 267.195 62.184C266.595 62.784 265.851 63.084 264.963 63.084C264.075 63.084 263.319 62.784 262.695 62.184ZM278.175 84H272.775V57.288H278.175V84ZM300.062 81.192C297.878 83.256 295.31 84.288 292.358 84.288C289.43 84.288 287.006 83.388 285.086 81.588C283.166 79.764 282.206 77.328 282.206 74.28C282.206 71.232 283.178 68.808 285.122 67.008C287.09 65.208 289.406 64.308 292.07 64.308C294.734 64.308 296.99 65.112 298.838 66.72C300.71 68.328 301.646 70.536 301.646 73.344V76.224H287.534C287.702 77.28 288.254 78.144 289.19 78.816C290.126 79.488 291.182 79.824 292.358 79.824C294.254 79.824 295.814 79.188 297.038 77.916L300.062 81.192ZM296.174 72.372C296.054 71.22 295.622 70.332 294.878 69.708C294.134 69.084 293.222 68.772 292.142 68.772C291.086 68.772 290.114 69.096 289.226 69.744C288.338 70.392 287.822 71.268 287.678 72.372H296.174Z" fill="#00C2FF"/>
</g>
<defs>
<filter id="filter0_d_2_2071" x="0" y="0" width="431" height="212" filterUnits="userSpaceOnUse" color-interpolation-filters="sRGB">
<feFlood flood-opacity="0" result="BackgroundImageFix"/>
<feColorMatrix in="SourceAlpha" type="matrix" values="0 0 0 0 0 0 0 0 0 0 0 0 0 0 0 0 0 0 127 0" result="hardAlpha"/>
<feOffset dy="5"/>
<feGaussianBlur stdDeviation="15"/>
<feComposite in2="hardAlpha" operator="out"/>
<feColorMatrix type="matrix" values="0 0 0 0 0 0 0 0 0 0 0 0 0 0 0 0 0 0 0.05 0"/>
<feBlend mode="normal" in2="BackgroundImageFix" result="effect1_dropShadow_2_2071"/>
<feBlend mode="normal" in="SourceGraphic" in2="effect1_dropShadow_2_2071" result="shape"/>
</filter>
</defs>
</svg>
