<svg width="189" height="32" viewBox="0 0 189 32" fill="none" xmlns="http://www.w3.org/2000/svg">
<path d="M0 16.0796C0 7.28702 7.1278 0.15921 15.9204 0.15921H71.6418C80.4344 0.15921 87.5622 7.28702 87.5622 16.0796V32H15.9204C7.1278 32 0 24.8722 0 16.0796Z" fill="#00C2FF"/>
<path d="M23.8567 11.9562C25.4488 11.9562 26.7304 12.4338 27.7015 13.3891C28.6886 14.3443 29.1821 15.7612 29.1821 17.6398V24.995H25.4567V18.2129C25.4567 17.194 25.2339 16.4378 24.7881 15.9443C24.3423 15.4348 23.6975 15.1801 22.8538 15.1801C21.9145 15.1801 21.1662 15.4746 20.609 16.0637C20.0518 16.6368 19.7732 17.4965 19.7732 18.6428V24.995H16.0478V7.27563H19.7732V13.4846C20.2667 12.9911 20.8637 12.6169 21.5642 12.3622C22.2647 12.0916 23.0289 11.9562 23.8567 11.9562Z" fill="white"/>
<path d="M45.284 18.6189C45.284 18.6667 45.2601 19.001 45.2123 19.6219H35.4929C35.6681 20.4179 36.082 21.0468 36.7347 21.5085C37.3875 21.9702 38.1994 22.201 39.1706 22.201C39.8392 22.201 40.4283 22.1055 40.9377 21.9144C41.4631 21.7075 41.9487 21.3891 42.3944 20.9592L44.3765 23.1085C43.1666 24.4935 41.3994 25.1861 39.075 25.1861C37.6263 25.1861 36.3447 24.9075 35.2303 24.3503C34.1158 23.7771 33.2561 22.9891 32.6511 21.9861C32.0462 20.9831 31.7437 19.8448 31.7437 18.5712C31.7437 17.3134 32.0382 16.1831 32.6273 15.1801C33.2322 14.1612 34.0521 13.3731 35.087 12.8159C36.1377 12.2428 37.3079 11.9562 38.5974 11.9562C39.8551 11.9562 40.9934 12.2269 42.0123 12.7682C43.0312 13.3095 43.8273 14.0896 44.4004 15.1085C44.9895 16.1115 45.284 17.2816 45.284 18.6189ZM38.6213 14.7741C37.7775 14.7741 37.0691 15.0129 36.4959 15.4906C35.9228 15.9682 35.5725 16.6209 35.4452 17.4488H41.7735C41.6462 16.6368 41.2959 15.9921 40.7228 15.5144C40.1497 15.0209 39.4492 14.7741 38.6213 14.7741Z" fill="white"/>
<path d="M47.7642 7.27563H51.4896V24.995H47.7642V7.27563Z" fill="white"/>
<path d="M54.947 7.27563H58.6724V24.995H54.947V7.27563Z" fill="white"/>
<path d="M68.2433 25.1861C66.8901 25.1861 65.6722 24.9075 64.5896 24.3503C63.5229 23.7771 62.6871 22.9891 62.0821 21.9861C61.4771 20.9831 61.1747 19.8448 61.1747 18.5712C61.1747 17.2975 61.4771 16.1592 62.0821 15.1562C62.6871 14.1532 63.5229 13.3731 64.5896 12.8159C65.6722 12.2428 66.8901 11.9562 68.2433 11.9562C69.5965 11.9562 70.8065 12.2428 71.8732 12.8159C72.9398 13.3731 73.7757 14.1532 74.3806 15.1562C74.9856 16.1592 75.2881 17.2975 75.2881 18.5712C75.2881 19.8448 74.9856 20.9831 74.3806 21.9861C73.7757 22.9891 72.9398 23.7771 71.8732 24.3503C70.8065 24.9075 69.5965 25.1861 68.2433 25.1861ZM68.2433 22.1294C69.1985 22.1294 69.9786 21.811 70.5836 21.1741C71.2045 20.5214 71.515 19.6537 71.515 18.5712C71.515 17.4886 71.2045 16.6289 70.5836 15.9921C69.9786 15.3393 69.1985 15.0129 68.2433 15.0129C67.2881 15.0129 66.5 15.3393 65.8791 15.9921C65.2582 16.6289 64.9478 17.4886 64.9478 18.5712C64.9478 19.6537 65.2582 20.5214 65.8791 21.1741C66.5 21.811 67.2881 22.1294 68.2433 22.1294Z" fill="white"/>
<path d="M103.276 10.0537C104.47 10.0537 105.552 10.3323 106.523 10.8896C107.51 11.4308 108.283 12.203 108.84 13.206C109.397 14.193 109.676 15.3473 109.676 16.6687C109.676 17.9901 109.397 19.1522 108.84 20.1552C108.283 21.1423 107.51 21.9144 106.523 22.4716C105.552 23.0129 104.47 23.2836 103.276 23.2836C101.636 23.2836 100.346 22.7662 99.407 21.7313V27.7254H95.6816V10.2448H99.2398V11.7254C100.163 10.6109 101.509 10.0537 103.276 10.0537ZM102.631 20.2269C103.586 20.2269 104.366 19.9085 104.971 19.2716C105.592 18.6189 105.903 17.7512 105.903 16.6687C105.903 15.5861 105.592 14.7264 104.971 14.0896C104.366 13.4368 103.586 13.1104 102.631 13.1104C101.676 13.1104 100.888 13.4368 100.267 14.0896C99.6617 14.7264 99.3593 15.5861 99.3593 16.6687C99.3593 17.7512 99.6617 18.6189 100.267 19.2716C100.888 19.9085 101.676 20.2269 102.631 20.2269Z" fill="#555555"/>
<path d="M115.728 11.9403C116.173 11.3194 116.771 10.8498 117.519 10.5313C118.283 10.2129 119.159 10.0537 120.146 10.0537V13.4925C119.732 13.4607 119.453 13.4448 119.31 13.4448C118.243 13.4448 117.407 13.7473 116.802 14.3522C116.197 14.9413 115.895 15.8328 115.895 17.0269V23.0925H112.17V10.2448H115.728V11.9403Z" fill="#555555"/>
<path d="M128.358 23.2836C127.004 23.2836 125.786 23.005 124.704 22.4478C123.637 21.8746 122.801 21.0866 122.196 20.0836C121.591 19.0806 121.289 17.9423 121.289 16.6687C121.289 15.395 121.591 14.2567 122.196 13.2537C122.801 12.2507 123.637 11.4706 124.704 10.9134C125.786 10.3403 127.004 10.0537 128.358 10.0537C129.711 10.0537 130.921 10.3403 131.987 10.9134C133.054 11.4706 133.89 12.2507 134.495 13.2537C135.1 14.2567 135.402 15.395 135.402 16.6687C135.402 17.9423 135.1 19.0806 134.495 20.0836C133.89 21.0866 133.054 21.8746 131.987 22.4478C130.921 23.005 129.711 23.2836 128.358 23.2836ZM128.358 20.2269C129.313 20.2269 130.093 19.9085 130.698 19.2716C131.319 18.6189 131.629 17.7512 131.629 16.6687C131.629 15.5861 131.319 14.7264 130.698 14.0896C130.093 13.4368 129.313 13.1104 128.358 13.1104C127.402 13.1104 126.614 13.4368 125.993 14.0896C125.372 14.7264 125.062 15.5861 125.062 16.6687C125.062 17.7512 125.372 18.6189 125.993 19.2716C126.614 19.9085 127.402 20.2269 128.358 20.2269Z" fill="#555555"/>
<path d="M141.976 10.5313H145.272V13.397H142.072V23.0925H138.346V13.397H136.364V10.5313H138.346V9.95821C138.346 8.49353 138.776 7.33134 139.636 6.47164C140.511 5.61194 141.737 5.18209 143.313 5.18209C143.871 5.18209 144.396 5.24577 144.889 5.37313C145.399 5.48458 145.821 5.65174 146.155 5.87463L145.176 8.57313C144.746 8.27065 144.245 8.1194 143.672 8.1194C142.541 8.1194 141.976 8.7403 141.976 9.98209V10.5313ZM149.045 10.2448H152.77V23.0925H149.045V10.2448ZM150.907 8.45373C150.223 8.45373 149.666 8.25473 149.236 7.85672C148.806 7.45871 148.591 6.96517 148.591 6.37612C148.591 5.78707 148.806 5.29353 149.236 4.89552C149.666 4.49751 150.223 4.29851 150.907 4.29851C151.592 4.29851 152.149 4.48955 152.579 4.87164C153.009 5.25373 153.224 5.73134 153.224 6.30448C153.224 6.92537 153.009 7.44279 152.579 7.85672C152.149 8.25473 151.592 8.45373 150.907 8.45373Z" fill="#555555"/>
<path d="M156.223 5.37313H159.948V23.0925H156.223V5.37313Z" fill="#555555"/>
<path d="M175.991 16.7164C175.991 16.7642 175.967 17.0985 175.919 17.7194H166.2C166.375 18.5154 166.789 19.1443 167.441 19.606C168.094 20.0677 168.906 20.2985 169.877 20.2985C170.546 20.2985 171.135 20.203 171.644 20.0119C172.17 19.805 172.655 19.4866 173.101 19.0567L175.083 21.206C173.873 22.591 172.106 23.2836 169.782 23.2836C168.333 23.2836 167.051 23.005 165.937 22.4478C164.822 21.8746 163.963 21.0866 163.358 20.0836C162.753 19.0806 162.45 17.9423 162.45 16.6687C162.45 15.4109 162.745 14.2806 163.334 13.2776C163.939 12.2587 164.759 11.4706 165.794 10.9134C166.844 10.3403 168.014 10.0537 169.304 10.0537C170.562 10.0537 171.7 10.3244 172.719 10.8657C173.738 11.407 174.534 12.1871 175.107 13.206C175.696 14.209 175.991 15.3791 175.991 16.7164ZM169.328 12.8716C168.484 12.8716 167.776 13.1104 167.203 13.5881C166.629 14.0657 166.279 14.7184 166.152 15.5463H172.48C172.353 14.7343 172.003 14.0896 171.429 13.6119C170.856 13.1184 170.156 12.8716 169.328 12.8716Z" fill="#555555"/>
<path d="M183.328 0.603299H182.1V3.77062H181.27V0.603299H180.06V0H183.328V0.603299ZM184.878 0L185.908 2.72323L186.935 0H188.02V3.77062H187.182V2.72323L187.274 0.938465L186.189 3.77062H185.623L184.543 0.942655L184.626 2.72323V3.77062H183.801V0H184.878Z" fill="#555555"/>
</svg>
