<svg width="19" height="19" viewBox="0 0 19 19" fill="none" xmlns="http://www.w3.org/2000/svg">
<path fill-rule="evenodd" clip-rule="evenodd" d="M2.04413 4.30526C2.04413 3.05626 3.05713 2.04326 4.30513 2.04326H5.33413C5.93013 2.04326 6.50313 1.80726 6.92713 1.38626L7.64613 0.666258C8.52713 -0.218742 9.95913 -0.222742 10.8441 0.658258L10.8531 0.666258L11.5731 1.38626C11.9961 1.80726 12.5691 2.04326 13.1661 2.04326H14.1941C15.4431 2.04326 16.4561 3.05626 16.4561 4.30526V5.33226C16.4561 5.93026 16.6921 6.50226 17.1131 6.92626L17.8331 7.64626C18.7181 8.52726 18.7231 9.95826 17.8421 10.8443L17.8331 10.8533L17.1131 11.5733C16.6921 11.9953 16.4561 12.5693 16.4561 13.1653V14.1943C16.4561 15.4433 15.4431 16.4553 14.1941 16.4553H13.1661C12.5691 16.4553 11.9961 16.6923 11.5731 17.1133L10.8531 17.8323C9.97313 18.7183 8.54113 18.7223 7.65513 17.8413C7.65213 17.8383 7.64913 17.8353 7.64613 17.8323L6.92713 17.1133C6.50313 16.6923 5.93013 16.4553 5.33413 16.4553H4.30513C3.05713 16.4553 2.04413 15.4433 2.04413 14.1943V13.1653C2.04413 12.5693 1.80713 11.9953 1.38613 11.5733L0.667134 10.8533C-0.218866 9.97226 -0.222866 8.54026 0.658134 7.65526L0.667134 7.64626L1.38613 6.92626C1.80713 6.50226 2.04413 5.93026 2.04413 5.33226V4.30526Z" fill="#00C2FF"/>
<path d="M11.5709 10.1365C11.4802 10.2243 11.4386 10.3513 11.4592 10.4759L11.7704 12.1977C11.7966 12.3436 11.735 12.4913 11.6129 12.5756C11.4932 12.6631 11.334 12.6736 11.2034 12.6036L9.65348 11.7952C9.59959 11.7665 9.53974 11.7511 9.4785 11.7494H9.38366C9.35077 11.7543 9.31857 11.7648 9.28918 11.7809L7.73888 12.5931C7.66224 12.6316 7.57545 12.6453 7.49041 12.6316C7.28324 12.5924 7.14501 12.3951 7.17895 12.1868L7.49041 10.4651C7.51106 10.3394 7.46941 10.2117 7.37878 10.1225L6.11509 8.89762C6.00941 8.79508 5.97266 8.6411 6.02095 8.50217C6.06785 8.36359 6.18753 8.26245 6.33206 8.23971L8.07134 7.98739C8.20362 7.97374 8.3198 7.89325 8.3793 7.77427L9.1457 6.20297C9.16389 6.16798 9.18734 6.13578 9.21569 6.10849L9.24718 6.08399C9.26363 6.06579 9.28253 6.05074 9.30352 6.03849L9.34167 6.0245L9.40116 6H9.54849C9.68008 6.01365 9.79591 6.09239 9.85645 6.20997L10.633 7.77427C10.689 7.8887 10.7978 7.96814 10.9235 7.98739L12.6627 8.23971C12.8097 8.2607 12.9326 8.36219 12.9812 8.50217C13.027 8.6425 12.9875 8.79648 12.8797 8.89762L11.5709 10.1365Z" fill="white"/>
</svg>
