<svg width="18" height="18" viewBox="0 0 18 18" fill="none" xmlns="http://www.w3.org/2000/svg">
<path d="M9 1C7.41775 1 5.87103 1.46919 4.55544 2.34824C3.23985 3.22729 2.21447 4.47672 1.60897 5.93853C1.00347 7.40034 0.84504 9.00887 1.15372 10.5607C1.4624 12.1126 2.22433 13.538 3.34315 14.6569C4.46197 15.7757 5.88743 16.5376 7.43928 16.8463C8.99113 17.155 10.5997 16.9965 12.0615 16.391C13.5233 15.7855 14.7727 14.7602 15.6518 13.4446C16.5308 12.129 17 10.5822 17 9C17 6.87827 16.1571 4.84344 14.6569 3.34315C13.1566 1.84285 11.1217 1 9 1Z" stroke="black" stroke-width="2" stroke-miterlimit="10"/>
<path d="M6.4541 6.55845C6.4541 6.55845 6.49228 5.76299 7.34365 5.07799C7.84865 4.67118 8.4541 4.55345 8.99956 4.54527C9.49637 4.5389 9.94001 4.62118 10.2055 4.74754C10.66 4.9639 11.545 5.49208 11.545 6.61527C11.545 7.79708 10.7723 8.3339 9.89183 8.92436C9.01137 9.51481 8.77228 10.1557 8.77228 10.818" stroke="black" stroke-width="2" stroke-miterlimit="10" stroke-linecap="round"/>
<path d="M8.72745 14.0911C9.22953 14.0911 9.63654 13.6841 9.63654 13.182C9.63654 12.68 9.22953 12.2729 8.72745 12.2729C8.22537 12.2729 7.81836 12.68 7.81836 13.182C7.81836 13.6841 8.22537 14.0911 8.72745 14.0911Z" fill="black"/>
</svg>
