<svg width="29" height="22" viewBox="0 0 29 22" fill="none" xmlns="http://www.w3.org/2000/svg">
<path d="M28 1V21" stroke="#ABABAB" stroke-opacity="0.5" stroke-linecap="round" stroke-linejoin="round"/>
<path fill-rule="evenodd" clip-rule="evenodd" d="M4.70182 2.38125C5.55491 2.34198 5.82691 2.33325 8 2.33325C10.1731 2.33325 10.4451 2.34271 11.2975 2.38125C12.1498 2.4198 12.7316 2.5558 13.2407 2.75289C13.7738 2.95434 14.2575 3.26925 14.6575 3.67652C15.0647 4.0758 15.3789 4.55871 15.5796 5.09252C15.7775 5.60162 15.9127 6.18343 15.952 7.03434C15.9913 7.88889 16 8.16089 16 10.3333C16 12.5063 15.9905 12.7783 15.952 13.6314C15.9135 14.4823 15.7775 15.0642 15.5796 15.5733C15.3789 16.1071 15.0642 16.5909 14.6575 16.9907C14.2575 17.398 13.7738 17.7122 13.2407 17.9129C12.7316 18.1107 12.1498 18.246 11.2989 18.2853C10.4451 18.3245 10.1731 18.3333 8 18.3333C5.82691 18.3333 5.55491 18.3238 4.70182 18.2853C3.85091 18.2467 3.26909 18.1107 2.76 17.9129C2.22612 17.7121 1.74241 17.3974 1.34255 16.9907C0.935549 16.5912 0.620593 16.1077 0.419636 15.574C0.222545 15.0649 0.0872727 14.4831 0.048 13.6322C0.00872726 12.7776 0 12.5056 0 10.3333C0 8.16016 0.00945454 7.88816 0.048 7.0358C0.0865454 6.18343 0.222545 5.60162 0.419636 5.09252C0.620889 4.55877 0.936086 4.0753 1.34327 3.6758C1.74257 3.26889 2.2258 2.95394 2.75927 2.75289C3.26836 2.5558 3.85018 2.42052 4.70109 2.38125H4.70182ZM11.2327 3.82125C10.3891 3.78271 10.136 3.77471 8 3.77471C5.864 3.77471 5.61091 3.78271 4.76727 3.82125C3.98691 3.85689 3.56364 3.98707 3.28145 4.09689C2.90836 4.24234 2.64145 4.41471 2.36145 4.69471C2.09603 4.95293 1.89177 5.26728 1.76364 5.61471C1.65382 5.89689 1.52364 6.32016 1.488 7.10052C1.44945 7.94416 1.44145 8.19725 1.44145 10.3333C1.44145 12.4693 1.44945 12.7223 1.488 13.566C1.52364 14.3463 1.65382 14.7696 1.76364 15.0518C1.89164 15.3987 2.096 15.7136 2.36145 15.9718C2.61964 16.2373 2.93455 16.4416 3.28145 16.5696C3.56364 16.6794 3.98691 16.8096 4.76727 16.8453C5.61091 16.8838 5.86327 16.8918 8 16.8918C10.1367 16.8918 10.3891 16.8838 11.2327 16.8453C12.0131 16.8096 12.4364 16.6794 12.7185 16.5696C13.0916 16.4242 13.3585 16.2518 13.6385 15.9718C13.904 15.7136 14.1084 15.3987 14.2364 15.0518C14.3462 14.7696 14.4764 14.3463 14.512 13.566C14.5505 12.7223 14.5585 12.4693 14.5585 10.3333C14.5585 8.19725 14.5505 7.94416 14.512 7.10052C14.4764 6.32016 14.3462 5.89689 14.2364 5.61471C14.0909 5.24162 13.9185 4.97471 13.6385 4.69471C13.3803 4.4293 13.066 4.22504 12.7185 4.09689C12.4364 3.98707 12.0131 3.85689 11.2327 3.82125ZM6.97818 12.7994C7.54884 13.037 8.18428 13.069 8.77595 12.8901C9.36762 12.7112 9.87883 12.3325 10.2223 11.8185C10.5657 11.3046 10.72 10.6873 10.6589 10.0722C10.5978 9.45714 10.3251 8.88232 9.88727 8.44598C9.60817 8.16705 9.2707 7.95348 8.89915 7.82063C8.5276 7.68778 8.13122 7.63897 7.73854 7.6777C7.34586 7.71643 6.96666 7.84174 6.62822 8.04462C6.28979 8.24749 6.00054 8.52288 5.78131 8.85096C5.56208 9.17904 5.41832 9.55164 5.36038 9.94195C5.30243 10.3323 5.33175 10.7306 5.44621 11.1082C5.56068 11.4858 5.75744 11.8333 6.02234 12.1258C6.28724 12.4182 6.61369 12.6483 6.97818 12.7994ZM5.09236 7.42562C5.4742 7.04378 5.92751 6.74089 6.4264 6.53424C6.92529 6.32759 7.46 6.22123 8 6.22123C8.54 6.22123 9.07471 6.32759 9.5736 6.53424C10.0725 6.74089 10.5258 7.04378 10.9076 7.42562C11.2895 7.80745 11.5924 8.26076 11.799 8.75965C12.0057 9.25854 12.112 9.79325 12.112 10.3333C12.112 10.8733 12.0057 11.408 11.799 11.9069C11.5924 12.4057 11.2895 12.8591 10.9076 13.2409C10.1365 14.012 9.09058 14.4453 8 14.4453C6.90942 14.4453 5.86352 14.012 5.09236 13.2409C4.32121 12.4697 3.88798 11.4238 3.88798 10.3333C3.88798 9.24268 4.32121 8.19677 5.09236 7.42562ZM13.024 6.83362C13.1186 6.74436 13.1944 6.63702 13.2468 6.51796C13.2992 6.3989 13.3271 6.27054 13.329 6.14047C13.3309 6.01041 13.3067 5.88129 13.2578 5.76075C13.2089 5.64021 13.1363 5.53071 13.0443 5.43874C12.9524 5.34676 12.8429 5.27417 12.7223 5.22526C12.6018 5.17636 12.4727 5.15214 12.3426 5.15404C12.2125 5.15594 12.0842 5.18391 11.9651 5.2363C11.8461 5.2887 11.7387 5.36445 11.6495 5.45907C11.4759 5.64309 11.3808 5.88752 11.3845 6.14047C11.3882 6.39343 11.4903 6.63498 11.6692 6.81387C11.8481 6.99275 12.0896 7.09487 12.3426 7.09856C12.5955 7.10225 12.84 7.00721 13.024 6.83362Z" fill="#555555"/>
</svg>
