<svg width="23" height="24" viewBox="0 0 23 24" fill="none" xmlns="http://www.w3.org/2000/svg">
<path d="M11.1539 3.96154V6.92308H14.1155C14.7012 6.92308 15.2738 6.74939 15.7608 6.42397C16.2478 6.09855 16.6274 5.63602 16.8516 5.09487C17.0757 4.55372 17.1344 3.95825 17.0201 3.38377C16.9058 2.80929 16.6238 2.28159 16.2096 1.86742C15.7954 1.45324 15.2677 1.17118 14.6932 1.05691C14.1188 0.942635 13.5233 1.00128 12.9821 1.22543C12.441 1.44959 11.9785 1.82917 11.653 2.3162C11.3276 2.80322 11.1539 3.3758 11.1539 3.96154V3.96154Z" stroke="black" stroke-width="2" stroke-miterlimit="10" stroke-linecap="round"/>
<path d="M11.154 3.96154V6.92308H8.1925C7.60676 6.92308 7.03418 6.74939 6.54715 6.42397C6.06013 6.09855 5.68054 5.63602 5.45639 5.09487C5.23224 4.55372 5.17359 3.95825 5.28786 3.38377C5.40214 2.80929 5.68419 2.28159 6.09837 1.86742C6.51255 1.45324 7.04025 1.17118 7.61473 1.05691C8.18921 0.942635 8.78468 1.00128 9.32583 1.22543C9.86698 1.44959 10.3295 1.82917 10.6549 2.3162C10.9803 2.80322 11.154 3.3758 11.154 3.96154V3.96154Z" stroke="black" stroke-width="2" stroke-miterlimit="10" stroke-linecap="round"/>
<path d="M19.6154 6.92303H2.69231C1.75767 6.92303 1 7.68071 1 8.61534V11.1538C1 12.0884 1.75767 12.8461 2.69231 12.8461H19.6154C20.55 12.8461 21.3077 12.0884 21.3077 11.1538V8.61534C21.3077 7.68071 20.55 6.92303 19.6154 6.92303Z" stroke="black" stroke-width="2" stroke-linecap="round" stroke-linejoin="round"/>
<path d="M19.6155 12.8462V20.4616C19.6155 21.1348 19.3481 21.7805 18.872 22.2566C18.396 22.7326 17.7503 23.0001 17.0771 23.0001H5.23091C4.55766 23.0001 3.912 22.7326 3.43594 22.2566C2.95989 21.7805 2.69244 21.1348 2.69244 20.4616V12.8462" stroke="black" stroke-width="2" stroke-linecap="round" stroke-linejoin="round"/>
<path d="M11.1539 6.92303V23" stroke="black" stroke-width="2" stroke-linecap="round" stroke-linejoin="round"/>
</svg>
