<svg width="29" height="22" viewBox="0 0 29 22" fill="none" xmlns="http://www.w3.org/2000/svg">
<path d="M28 1V21" stroke="#ABABAB" stroke-opacity="0.5" stroke-linecap="round" stroke-linejoin="round"/>
<path d="M13.6327 17.2997H11.2621V13.587C11.2621 12.7017 11.2462 11.562 10.0291 11.562C8.79431 11.562 8.60537 12.5267 8.60537 13.5226V17.2995H6.23475V9.66472H8.51056V10.7081H8.54243C8.77019 10.3187 9.09931 9.99829 9.49474 9.78111C9.89017 9.56392 10.3371 9.45806 10.7879 9.47479C13.1907 9.47479 13.6337 11.0553 13.6337 13.1114L13.6327 17.2997ZM3.55975 8.62116C2.79994 8.62129 2.18387 8.00541 2.18375 7.2456C2.18362 6.48579 2.79944 5.86972 3.55925 5.8696C4.31906 5.86941 4.93512 6.48529 4.93525 7.2451C4.93531 7.60998 4.79044 7.95994 4.53248 8.218C4.27453 8.47606 3.92463 8.62108 3.55975 8.62116ZM4.74512 17.2998H2.37194V9.66472H4.74506V17.2997L4.74512 17.2998ZM14.8146 3.66791H1.18069C0.536312 3.66066 0.007875 4.17685 0 4.82122V18.512C0.007625 19.1567 0.536 19.6734 1.18062 19.6667H14.8146C15.4606 19.6747 15.9911 19.158 16 18.512V4.82016C15.9908 4.17454 15.4603 3.65841 14.8146 3.66685" fill="#555555"/>
</svg>
