<svg width="31" height="22" viewBox="0 0 31 22" fill="none" xmlns="http://www.w3.org/2000/svg">
<path d="M30 1V21" stroke="#ABABAB" stroke-opacity="0.5" stroke-linecap="round" stroke-linejoin="round"/>
<path d="M19.4783 4.22729C18.7615 4.54853 17.9914 4.76564 17.183 4.86331C18.0082 4.36342 18.6418 3.57182 18.9401 2.62865C18.1557 3.09915 17.2975 3.43065 16.4025 3.60882C15.6735 2.82384 14.635 2.33325 13.4856 2.33325C11.2786 2.33325 9.48926 4.14178 9.48926 6.37236C9.48926 6.68898 9.52464 6.99722 9.59274 7.29292C6.27154 7.12442 3.32698 5.51639 1.35595 3.07263C1.01203 3.66919 0.814967 4.36311 0.814967 5.10325C0.814967 6.50464 1.52052 7.7409 2.59274 8.46528C1.95814 8.44519 1.33749 8.27195 0.782631 7.96001C0.782402 7.97693 0.782402 7.99385 0.782402 8.01084C0.782402 9.96787 2.15988 11.6004 3.98795 11.9715C3.39948 12.1333 2.78222 12.1569 2.18332 12.0407C2.6918 13.6454 4.16766 14.8132 5.91629 14.8459C4.54863 15.9292 2.82549 16.5749 0.953294 16.5749C0.630685 16.5749 0.312641 16.5558 0 16.5185C1.76849 17.6646 3.86902 18.3333 6.12576 18.3333C13.4763 18.3333 17.4957 12.1784 17.4957 6.84079C17.4957 6.6656 17.4919 6.49141 17.4842 6.31822C18.2665 5.74656 18.9418 5.03851 19.4783 4.22729Z" fill="#555555"/>
</svg>
