<svg width="32" height="32" viewBox="0 0 32 32" fill="none" xmlns="http://www.w3.org/2000/svg">
<rect width="32" height="32" rx="8" fill="white" fill-opacity="0.01"/>
<path fill-rule="evenodd" clip-rule="evenodd" d="M14 21.6C14 20.8268 14.6268 20.2 15.4 20.2H17.6C18.3732 20.2 19 20.8268 19 21.6C19 22.3732 18.3732 23 17.6 23H15.4C14.6268 23 14 22.3732 14 21.6ZM14 10.4C14 9.6268 14.6268 9 15.4 9H17.6C18.3732 9 19 9.6268 19 10.4C19 11.1732 18.3732 11.8 17.6 11.8H15.4C14.6268 11.8 14 11.1732 14 10.4ZM14 16C14 15.2268 14.6268 14.6 15.4 14.6H17.6C18.3732 14.6 19 15.2268 19 16C19 16.7732 18.3732 17.4 17.6 17.4H15.4C14.6268 17.4 14 16.7732 14 16Z" fill="#091E42"/>
</svg>
