<svg width="16" height="8" viewBox="0 0 16 8" fill="none" xmlns="http://www.w3.org/2000/svg">
<path fill-rule="evenodd" clip-rule="evenodd" d="M1.00001 4.34721C0.998887 4.0523 1.06484 3.76099 1.1929 3.49532C1.59473 2.69164 2.72792 2.26569 3.66822 2.07281C4.34636 1.9281 5.03387 1.83141 5.72563 1.78349C7.00637 1.67099 8.2945 1.67099 9.57524 1.78349C10.2669 1.83197 10.9544 1.92864 11.6326 2.07281C12.5729 2.26569 13.7061 2.65146 14.108 3.49532C14.3655 4.03687 14.3655 4.66559 14.108 5.20715C13.7061 6.05101 12.5729 6.43677 11.6326 6.62162C10.9553 6.77233 10.2675 6.87173 9.57524 6.91898C8.53282 7.00735 7.48554 7.02346 6.4409 6.9672C6.1998 6.9672 5.96673 6.9672 5.72563 6.91898C5.03592 6.87231 4.35079 6.7729 3.67626 6.62162C2.72792 6.43677 1.60277 6.05101 1.1929 5.20715C1.0655 4.9384 0.999607 4.64463 1.00001 4.34721Z" stroke="#200E32" stroke-width="2" stroke-linecap="round" stroke-linejoin="round"/>
</svg>
