<svg width="23" height="16" viewBox="0 0 23 16" fill="none" xmlns="http://www.w3.org/2000/svg">
<path fill-rule="evenodd" clip-rule="evenodd" d="M21.6003 1.22498C21.9551 1.57974 22.2107 2.02123 22.3417 2.50551V2.5056C23.0963 5.54291 22.922 10.3399 22.3564 13.4945C22.2253 13.9788 21.9697 14.4203 21.6149 14.775C21.2602 15.1298 20.8187 15.3854 20.3344 15.5165C18.5616 16 11.4261 16 11.4261 16C11.4261 16 4.29057 16 2.51766 15.5165C2.03339 15.3854 1.59191 15.1298 1.23717 14.775C0.882425 14.4203 0.626807 13.9788 0.495764 13.4945C-0.263251 10.4704 -0.0552245 5.67035 0.481039 2.52023C0.612068 2.03594 0.867681 1.59443 1.22242 1.23965C1.57716 0.88488 2.01866 0.629228 2.50294 0.498157C4.27585 0.0146359 11.4116 0 11.4116 0C11.4116 0 18.5469 0 20.3198 0.483521C20.8041 0.614585 21.2456 0.870223 21.6003 1.22498ZM15.0597 8.00017L9.1403 11.4287L9.14039 4.57161L15.0597 8.00017Z" fill="#111111"/>
</svg>
