<svg width="30" height="24" viewBox="0 0 30 24" fill="none" xmlns="http://www.w3.org/2000/svg">
<path d="M29.2174 2.84106C28.1423 3.32292 26.9871 3.64858 25.7745 3.79508C27.0123 3.04525 27.9626 1.85786 28.4101 0.443094C27.2335 1.14884 25.9462 1.64609 24.6038 1.91335C23.5103 0.735876 21.9525 0 20.2284 0C16.9179 0 14.2339 2.71278 14.2339 6.05866C14.2339 6.53359 14.287 6.99595 14.3891 7.43951C9.40732 7.18676 4.99047 4.77471 2.03392 1.10906C1.51805 2.0039 1.22245 3.04479 1.22245 4.155C1.22245 6.25708 2.28078 8.11148 3.88911 9.19804C2.9372 9.16791 2.00624 8.90804 1.17395 8.44013C1.1736 8.46551 1.1736 8.49089 1.1736 8.51639C1.1736 11.4519 3.23982 13.9008 5.98192 14.4574C5.09922 14.7 4.17333 14.7355 3.27497 14.5612C4.03771 16.9683 6.25149 18.7199 8.87444 18.7689C6.82295 20.3939 4.23823 21.3625 1.42994 21.3625C0.946027 21.3625 0.468962 21.3338 0 21.2779C2.65273 22.997 5.80353 24 9.18864 24C20.2144 24 26.2436 14.7677 26.2436 6.76131C26.2436 6.49852 26.2379 6.23724 26.2263 5.97745C27.3998 5.11997 28.4127 4.05789 29.2174 2.84106Z" fill="#555555"/>
</svg>
