<svg width="178" height="32" viewBox="0 0 178 32" fill="none" xmlns="http://www.w3.org/2000/svg">
<path d="M44.3359 17.736V24H41.0138V8H44.3359V13.6752C45.34 12.6816 46.4621 12.1848 47.7024 12.1848C48.9574 12.1848 50.0131 12.6168 50.8695 13.4808C51.7258 14.3448 52.154 15.4968 52.154 16.9368V24H48.8319V17.6496C48.8319 15.864 48.1601 14.9712 46.8165 14.9712C46.152 14.9712 45.5688 15.2088 45.0668 15.684C44.5796 16.1448 44.3359 16.8288 44.3359 17.736Z" fill="#111111"/>
<path d="M65.7969 22.1553C64.4532 23.3937 62.8734 24.0129 61.0573 24.0129C59.256 24.0129 57.7647 23.4729 56.5835 22.3929C55.4023 21.2985 54.8117 19.8369 54.8117 18.0081C54.8117 16.1793 55.4097 14.7249 56.6057 13.6449C57.8164 12.5649 59.2412 12.0249 60.8801 12.0249C62.519 12.0249 63.9069 12.5073 65.0438 13.4721C66.1955 14.4369 66.7713 15.7617 66.7713 17.4465V19.1745H58.0895C58.1929 19.8081 58.5325 20.3265 59.1083 20.7297C59.6842 21.1329 60.3338 21.3345 61.0573 21.3345C62.2237 21.3345 63.1834 20.9529 63.9365 20.1897L65.7969 22.1553ZM63.4049 16.8633C63.3311 16.1721 63.0653 15.6393 62.6076 15.2649C62.1499 14.8905 61.5888 14.7033 60.9244 14.7033C60.2747 14.7033 59.6768 14.8977 59.1305 15.2865C58.5842 15.6753 58.2667 16.2009 58.1781 16.8633H63.4049Z" fill="#111111"/>
<path d="M72.8405 24H69.5184V8H72.8405V24Z" fill="#111111"/>
<path d="M79.3988 24H76.0767V8H79.3988V24Z" fill="#111111"/>
<path d="M85.4228 18.0297C85.4228 18.9801 85.6959 19.7577 86.2422 20.3625C86.8033 20.9529 87.512 21.2481 88.3684 21.2481C89.2395 21.2481 89.9482 20.9529 90.4945 20.3625C91.0556 19.7577 91.3361 18.9801 91.3361 18.0297C91.3361 17.0793 91.0556 16.3017 90.4945 15.6969C89.9482 15.0921 89.2395 14.7897 88.3684 14.7897C87.512 14.7897 86.8033 15.0921 86.2422 15.6969C85.6959 16.3017 85.4228 17.0793 85.4228 18.0297ZM94.6804 18.0297C94.6804 19.7145 94.0824 21.1329 92.8865 22.2849C91.6905 23.4369 90.1845 24.0129 88.3684 24.0129C86.5671 24.0129 85.0684 23.4369 83.8725 22.2849C82.6765 21.1329 82.0785 19.7145 82.0785 18.0297C82.0785 16.3449 82.6765 14.9265 83.8725 13.7745C85.0684 12.6081 86.5671 12.0249 88.3684 12.0249C90.1845 12.0249 91.6905 12.6081 92.8865 13.7745C94.0824 14.9265 94.6804 16.3449 94.6804 18.0297Z" fill="#111111"/>
<path d="M104.302 12.3447C105.69 12.3447 106.922 12.9135 108 14.0511C109.093 15.1743 109.639 16.5927 109.639 18.3063C109.639 20.0199 109.093 21.4527 108 22.6047C106.922 23.7567 105.653 24.3327 104.191 24.3327C102.744 24.3327 101.577 23.7639 100.692 22.6263V28.0303H97.3694V12.5391H100.692V13.8351C101.71 12.8415 102.914 12.3447 104.302 12.3447ZM100.647 18.3711C100.647 19.3071 100.913 20.0775 101.445 20.6823C101.991 21.2727 102.648 21.5679 103.416 21.5679C104.183 21.5679 104.855 21.2727 105.431 20.6823C106.007 20.0775 106.295 19.3071 106.295 18.3711C106.295 17.4351 106.014 16.6503 105.453 16.0167C104.892 15.3831 104.22 15.0663 103.438 15.0663C102.655 15.0663 101.991 15.3831 101.445 16.0167C100.913 16.6359 100.647 17.4207 100.647 18.3711Z" fill="#111111"/>
<path d="M118.609 15.2304C117.62 15.2304 116.882 15.576 116.394 16.2672C115.907 16.944 115.664 17.844 115.664 18.9672V24H112.341V12.3792H115.664V13.9128C116.092 13.4376 116.623 13.0344 117.258 12.7032C117.908 12.372 118.565 12.1992 119.229 12.1848L119.251 15.2304H118.609Z" fill="#111111"/>
<path d="M124.153 18.0297C124.153 18.9801 124.426 19.7577 124.973 20.3625C125.534 20.9529 126.242 21.2481 127.099 21.2481C127.97 21.2481 128.679 20.9529 129.225 20.3625C129.786 19.7577 130.066 18.9801 130.066 18.0297C130.066 17.0793 129.786 16.3017 129.225 15.6969C128.679 15.0921 127.97 14.7897 127.099 14.7897C126.242 14.7897 125.534 15.0921 124.973 15.6969C124.426 16.3017 124.153 17.0793 124.153 18.0297ZM133.411 18.0297C133.411 19.7145 132.813 21.1329 131.617 22.2849C130.421 23.4369 128.915 24.0129 127.099 24.0129C125.297 24.0129 123.799 23.4369 122.603 22.2849C121.407 21.1329 120.809 19.7145 120.809 18.0297C120.809 16.3449 121.407 14.9265 122.603 13.7745C123.799 12.6081 125.297 12.0249 127.099 12.0249C128.915 12.0249 130.421 12.6081 131.617 13.7745C132.813 14.9265 133.411 16.3449 133.411 18.0297Z" fill="#111111"/>
<path d="M139.87 12.0608V12.8384H142.749V15.1712H139.87V24.0312H136.525V15.1712H135.13V12.8384H136.525V12.1256C136.525 10.8584 136.917 9.8576 137.699 9.1232C138.496 8.3744 139.478 8 140.645 8C141.826 8 142.896 8.432 143.856 9.296L142.66 11.4776C142.173 10.9304 141.634 10.6568 141.043 10.6568C140.704 10.6568 140.423 10.7792 140.202 11.024C139.98 11.2544 139.87 11.6 139.87 12.0608Z" fill="#111111"/>
<path d="M148.36 24.0312H145.038V12.8072H148.36V24.0312ZM145.303 11.2616C144.934 10.8872 144.75 10.4336 144.75 9.9008C144.75 9.368 144.934 8.9216 145.303 8.5616C145.687 8.1872 146.152 8 146.699 8C147.245 8 147.703 8.1872 148.072 8.5616C148.456 8.9216 148.648 9.368 148.648 9.9008C148.648 10.4336 148.456 10.8872 148.072 11.2616C147.703 11.6216 147.245 11.8016 146.699 11.8016C146.152 11.8016 145.687 11.6216 145.303 11.2616Z" fill="#111111"/>
<path d="M155.048 24.0001H151.726V7.9729H155.048V24.0001Z" fill="#111111"/>
<path d="M168.823 22.1424C167.479 23.3808 165.899 24 164.083 24C162.282 24 160.79 23.46 159.609 22.38C158.428 21.2856 157.837 19.824 157.837 17.9952C157.837 16.1664 158.435 14.712 159.631 13.632C160.842 12.552 162.103 12.012 163.742 12.012C165.381 12.012 166.933 12.4944 168.07 13.4592C169.221 14.424 169.797 15.7488 169.797 17.4336V19.1616H161.115C161.219 19.7952 161.558 20.3136 162.134 20.7168C162.71 21.12 163.36 21.3216 164.083 21.3216C165.25 21.3216 166.209 20.94 166.962 20.1768L168.823 22.1424ZM166.431 16.8504C166.357 16.1592 166.091 15.6264 165.634 15.252C165.176 14.8776 164.615 14.6904 163.95 14.6904C163.3 14.6904 162.703 14.8848 162.156 15.2736C161.61 15.6624 161.292 16.188 161.204 16.8504H166.431Z" fill="#111111"/>
<path d="M173.218 0.64H171.933V4H171.064V0.64H169.797V0H173.218V0.64ZM174.712 0L175.79 2.8889L176.865 0H178V4H177.122V2.8889L177.219 0.995555L176.084 4H175.492L174.361 1L174.448 2.8889V4H173.585V0H174.712Z" fill="#111111"/>
<path d="M7.63795 16.2384C8.50977 15.7476 9.62456 16.0389 10.1279 16.8891C10.7678 17.9701 11.6882 18.8679 12.7966 19.4919C13.905 20.116 15.1623 20.4447 16.4421 20.4447C17.7221 20.4447 18.9794 20.116 20.0877 19.4919C21.1961 18.8679 22.1164 17.9701 22.7564 16.8891C23.2597 16.0389 24.3745 15.7476 25.2463 16.2384C26.1182 16.7295 26.4168 17.8167 25.9135 18.6669C24.9536 20.2883 23.5731 21.6349 21.9104 22.5711C20.2479 23.5072 18.3619 24 16.4421 24C14.5224 24 12.6364 23.5072 10.9738 22.5711C9.31128 21.6349 7.93065 20.2883 6.97076 18.6669C6.46743 17.8167 6.76612 16.7295 7.63795 16.2384Z" fill="white"/>
<path fill-rule="evenodd" clip-rule="evenodd" d="M16.4055 0C7.345 0 0 7.16344 0 16C0 24.8365 7.345 32 16.4055 32H31.1705C32.0766 32 32.8111 31.2837 32.8111 30.4V16C32.8111 7.16344 25.466 0 16.4055 0ZM10.1279 16.8891C9.62457 16.0389 8.50978 15.7476 7.63796 16.2384C6.76613 16.7294 6.46744 17.8166 6.97078 18.6669C7.93066 20.2883 9.31129 21.6349 10.9739 22.571C12.6364 23.5072 14.5224 24 16.4421 24C18.3619 24 20.2479 23.5072 21.9104 22.571C23.5731 21.6349 24.9536 20.2883 25.9135 18.6669C26.4168 17.8166 26.1183 16.7294 25.2463 16.2384C24.3745 15.7476 23.2598 16.0389 22.7564 16.8891C22.1165 17.9701 21.1961 18.8678 20.0878 19.4918C18.9794 20.116 17.7221 20.4446 16.4421 20.4446C15.1623 20.4446 13.905 20.116 12.7966 19.4918C11.6882 18.8678 10.7678 17.9701 10.1279 16.8891Z" fill="#111111"/>
</svg>
