<svg width="16" height="16" viewBox="0 0 16 16" fill="none" xmlns="http://www.w3.org/2000/svg">
<path d="M3.72454 8.11921C4.14968 7.87379 4.6933 8.01945 4.93874 8.44457C5.2508 8.98505 5.69962 9.43393 6.24012 9.74593C6.78061 10.058 7.39372 10.2223 8.01781 10.2223C8.64197 10.2223 9.25509 10.058 9.79557 9.74593C10.3361 9.43393 10.7849 8.98505 11.0969 8.44457C11.3424 8.01945 11.886 7.87379 12.3111 8.11921C12.7363 8.36473 12.8819 8.90833 12.6364 9.33345C12.1684 10.1442 11.4952 10.8174 10.6844 11.2855C9.87365 11.7536 8.95397 12 8.01781 12C7.08167 12 6.162 11.7536 5.35126 11.2855C4.54053 10.8174 3.86728 10.1442 3.3992 9.33345C3.15375 8.90833 3.29941 8.36473 3.72454 8.11921Z" fill="white"/>
<path fill-rule="evenodd" clip-rule="evenodd" d="M8 0C3.58172 0 0 3.58172 0 8C0 12.4182 3.58172 16 8 16H15.2C15.6418 16 16 15.6418 16 15.2V8C16 3.58172 12.4182 0 8 0ZM4.93878 8.44456C4.69333 8.01944 4.14971 7.87378 3.72458 8.1192C3.29944 8.36472 3.15378 8.90832 3.39923 9.33344C3.86731 10.1442 4.54056 10.8174 5.3513 11.2855C6.16203 11.7536 7.0817 12 8.01784 12C8.954 12 9.87368 11.7536 10.6844 11.2855C11.4952 10.8174 12.1684 10.1442 12.6365 9.33344C12.8819 8.90832 12.7363 8.36472 12.3111 8.1192C11.886 7.87378 11.3424 8.01944 11.097 8.44456C10.7849 8.98504 10.3361 9.43392 9.7956 9.74592C9.25512 10.058 8.642 10.2223 8.01784 10.2223C7.39375 10.2223 6.78064 10.058 6.24015 9.74592C5.69966 9.43392 5.25083 8.98504 4.93878 8.44456Z" fill="#111111"/>
</svg>
