<svg width="19" height="18" viewBox="0 0 19 18" fill="none" xmlns="http://www.w3.org/2000/svg">
<path d="M1.04785 12.1668C1.04785 12.1668 1.17245 13.6917 1.2014 14.1726C1.24001 14.8175 1.4892 15.5378 1.9051 16.038C2.4921 16.7469 3.18352 16.997 4.10657 16.9988C5.19196 17.0005 13.0844 17.0005 14.1698 16.9988C15.0929 16.997 15.7843 16.7469 16.3713 16.038C16.7872 15.5378 17.0364 14.8175 17.0759 14.1726C17.104 13.6917 17.2285 12.1668 17.2285 12.1668" stroke="#200E32" stroke-width="2" stroke-linecap="round" stroke-linejoin="round"/>
<path d="M6.04199 3.26289V2.93737C6.04199 1.8669 6.90889 1 7.97936 1H10.2449C11.3145 1 12.1823 1.8669 12.1823 2.93737L12.1831 3.26289" stroke="#200E32" stroke-width="2" stroke-linecap="round" stroke-linejoin="round"/>
<path d="M9.11206 13.2205V12.0851" stroke="#200E32" stroke-width="2" stroke-linecap="round" stroke-linejoin="round"/>
<path fill-rule="evenodd" clip-rule="evenodd" d="M1 5.94763V8.98968C2.68291 10.0996 4.69925 10.877 6.91213 11.185C7.17711 10.219 8.0484 9.51087 9.10746 9.51087C10.1498 9.51087 11.0387 10.219 11.2861 11.1938C13.5078 10.8858 15.532 10.1084 17.2237 8.98968V5.94763C17.2237 4.46126 16.0278 3.26445 14.5414 3.26445H3.69108C2.20471 3.26445 1 4.46126 1 5.94763Z" stroke="#200E32" stroke-width="2" stroke-linecap="round" stroke-linejoin="round"/>
</svg>
