<svg width="19" height="18" viewBox="0 0 19 18" fill="none" xmlns="http://www.w3.org/2000/svg">
<path d="M1.04785 12.167C1.04785 12.167 1.17245 13.692 1.2014 14.1728C1.24001 14.8177 1.4892 15.5381 1.9051 16.0382C2.4921 16.7472 3.18352 16.9972 4.10657 16.999C5.19196 17.0008 13.0844 17.0008 14.1698 16.999C15.0929 16.9972 15.7843 16.7472 16.3713 16.0382C16.7872 15.5381 17.0364 14.8177 17.0759 14.1728C17.104 13.692 17.2285 12.167 17.2285 12.167" stroke="#200E32" stroke-width="2" stroke-linecap="round" stroke-linejoin="round"/>
<path d="M6.04199 3.26289V2.93737C6.04199 1.8669 6.90889 1 7.97936 1H10.2449C11.3145 1 12.1823 1.8669 12.1823 2.93737L12.1831 3.26289" stroke="#200E32" stroke-width="2" stroke-linecap="round" stroke-linejoin="round"/>
<path d="M9.11206 13.2204V12.085" stroke="#200E32" stroke-width="2" stroke-linecap="round" stroke-linejoin="round"/>
<path fill-rule="evenodd" clip-rule="evenodd" d="M1 5.94783V8.98988C2.68291 10.0998 4.69925 10.8772 6.91213 11.1852C7.17711 10.2192 8.0484 9.51108 9.10746 9.51108C10.1498 9.51108 11.0387 10.2192 11.2861 11.194C13.5078 10.886 15.532 10.1086 17.2237 8.98988V5.94783C17.2237 4.46146 16.0278 3.26465 14.5414 3.26465H3.69108C2.20471 3.26465 1 4.46146 1 5.94783Z" stroke="#200E32" stroke-width="2" stroke-linecap="round" stroke-linejoin="round"/>
</svg>
