<svg width="20" height="20" viewBox="0 0 20 20" fill="none" xmlns="http://www.w3.org/2000/svg">
<path fill-rule="evenodd" clip-rule="evenodd" d="M5.67 0H14.34C17.73 0 20 2.38 20 5.92V14.091C20 17.62 17.73 20 14.34 20H5.67C2.28 20 0 17.62 0 14.091V5.92C0 2.38 2.28 0 5.67 0ZM9.42994 12.99L14.1799 8.24C14.5199 7.9 14.5199 7.35 14.1799 7C13.8399 6.66 13.2799 6.66 12.9399 7L8.80994 11.13L7.05994 9.38C6.71994 9.04 6.15994 9.04 5.81994 9.38C5.47994 9.72 5.47994 10.27 5.81994 10.62L8.19994 12.99C8.36994 13.16 8.58994 13.24 8.80994 13.24C9.03994 13.24 9.25994 13.16 9.42994 12.99Z" fill="#00C2FF"/>
</svg>
