<svg width="18" height="18" viewBox="0 0 18 18" fill="none" xmlns="http://www.w3.org/2000/svg">
<path fill-rule="evenodd" clip-rule="evenodd" d="M12.4286 1H15.0419C16.1231 1 17.0002 1.88472 17.0002 2.97614V5.61127C17.0002 6.70187 16.1231 7.58742 15.0419 7.58742H12.4286C11.3466 7.58742 10.4695 6.70187 10.4695 5.61127V2.97614C10.4695 1.88472 11.3466 1 12.4286 1Z" stroke="#00C2FF" stroke-width="2" stroke-linecap="round" stroke-linejoin="round"/>
<path fill-rule="evenodd" clip-rule="evenodd" d="M2.95913 1H5.57158C6.65362 1 7.53072 1.88472 7.53072 2.97614V5.61127C7.53072 6.70187 6.65362 7.58742 5.57158 7.58742H2.95913C1.8771 7.58742 1 6.70187 1 5.61127V2.97614C1 1.88472 1.8771 1 2.95913 1Z" stroke="#00C2FF" stroke-width="2" stroke-linecap="round" stroke-linejoin="round"/>
<path fill-rule="evenodd" clip-rule="evenodd" d="M2.95913 10.4124H5.57158C6.65362 10.4124 7.53072 11.2972 7.53072 12.3894V15.0237C7.53072 16.1151 6.65362 16.9999 5.57158 16.9999H2.95913C1.8771 16.9999 1 16.1151 1 15.0237V12.3894C1 11.2972 1.8771 10.4124 2.95913 10.4124Z" stroke="#00C2FF" stroke-width="2" stroke-linecap="round" stroke-linejoin="round"/>
<path fill-rule="evenodd" clip-rule="evenodd" d="M12.4286 10.4124H15.0419C16.1231 10.4124 17.0002 11.2972 17.0002 12.3894V15.0237C17.0002 16.1151 16.1231 16.9999 15.0419 16.9999H12.4286C11.3466 16.9999 10.4695 16.1151 10.4695 15.0237V12.3894C10.4695 11.2972 11.3466 10.4124 12.4286 10.4124Z" stroke="#00C2FF" stroke-width="2" stroke-linecap="round" stroke-linejoin="round"/>
</svg>
