<svg width="17" height="18" viewBox="0 0 17 18" fill="none" xmlns="http://www.w3.org/2000/svg">
<path d="M14.4707 6.65234C14.4707 6.65234 14.001 12.4774 13.7286 14.9312C13.5989 16.1031 12.8749 16.7898 11.6892 16.8114C9.43264 16.8521 7.17352 16.8547 4.91787 16.8071C3.77707 16.7838 3.06526 16.0884 2.93812 14.9372C2.66394 12.4619 2.1969 6.65234 2.1969 6.65234" stroke="#111111" stroke-width="1.5" stroke-linecap="round" stroke-linejoin="round"/>
<path d="M15.6669 3.85982H1" stroke="#111111" stroke-width="1.5" stroke-linecap="round" stroke-linejoin="round"/>
<path d="M12.8414 3.85992C12.1624 3.85992 11.5778 3.3799 11.4446 2.71479L11.2344 1.66307C11.1047 1.17787 10.6653 0.842285 10.1645 0.842285H6.5034C6.00262 0.842285 5.56325 1.17787 5.43352 1.66307L5.22335 2.71479C5.09015 3.3799 4.50548 3.85992 3.82654 3.85992" stroke="#111111" stroke-width="1.5" stroke-linecap="round" stroke-linejoin="round"/>
</svg>
