<svg width="18" height="18" viewBox="0 0 18 18" fill="none" xmlns="http://www.w3.org/2000/svg">
<path d="M8.41226 0.874756H5.242C2.63473 0.874756 1 2.72061 1 5.33381V12.3832C1 14.9964 2.6271 16.8422 5.242 16.8422H12.7238C15.3395 16.8422 16.9666 14.9964 16.9666 12.3832V8.96788" stroke="#111111" stroke-width="1.5" stroke-linecap="round" stroke-linejoin="round"/>
<path fill-rule="evenodd" clip-rule="evenodd" d="M6.15327 7.76998L12.4896 1.43369C13.2789 0.64515 14.5584 0.64515 15.3478 1.43369L16.3797 2.46557C17.1691 3.25496 17.1691 4.53527 16.3797 5.32381L10.0129 11.6906C9.66778 12.0357 9.19974 12.2299 8.71136 12.2299H5.53516L5.61486 9.02486C5.62673 8.55343 5.8192 8.10405 6.15327 7.76998Z" stroke="#111111" stroke-width="1.5" stroke-linecap="round" stroke-linejoin="round"/>
<path d="M11.5267 2.41223L15.3982 6.2837" stroke="#111111" stroke-width="1.5" stroke-linecap="round" stroke-linejoin="round"/>
</svg>
