<svg width="18" height="18" viewBox="0 0 18 18" fill="none" xmlns="http://www.w3.org/2000/svg">
<path d="M8.41217 1.03284H5.24195C2.63471 1.03284 1 2.87867 1 5.49184V12.5411C1 15.1543 2.62708 17.0001 5.24195 17.0001H12.7236C15.3394 17.0001 16.9664 15.1543 16.9664 12.5411V9.12586" stroke="#200E32" stroke-width="2" stroke-linecap="round" stroke-linejoin="round"/>
<path fill-rule="evenodd" clip-rule="evenodd" d="M6.15326 7.92761L12.4895 1.5914C13.2788 0.802868 14.5583 0.802868 15.3477 1.5914L16.3795 2.62327C17.1689 3.41264 17.1689 4.69294 16.3795 5.48147L10.0128 11.8482C9.66773 12.1933 9.1997 12.3875 8.71132 12.3875H5.53516L5.61486 9.18247C5.62673 8.71105 5.8192 8.26167 6.15326 7.92761Z" stroke="#200E32" stroke-width="2" stroke-linecap="round" stroke-linejoin="round"/>
<path d="M11.5266 2.57031L15.398 6.44173" stroke="#200E32" stroke-width="2" stroke-linecap="round" stroke-linejoin="round"/>
</svg>
