<svg width="18" height="18" viewBox="0 0 18 18" fill="none" xmlns="http://www.w3.org/2000/svg">
<path d="M8.41226 1.03223H5.242C2.63473 1.03223 1 2.87809 1 5.49129V12.5407C1 15.1539 2.6271 16.9997 5.242 16.9997H12.7238C15.3395 16.9997 16.9666 15.1539 16.9666 12.5407V9.12535" stroke="#00C2FF" stroke-width="1.5" stroke-linecap="round" stroke-linejoin="round"/>
<path fill-rule="evenodd" clip-rule="evenodd" d="M6.15327 7.92769L12.4896 1.5914C13.2789 0.802865 14.5584 0.802865 15.3478 1.5914L16.3797 2.62329C17.1691 3.41267 17.1691 4.69299 16.3797 5.48153L10.0129 11.8483C9.66778 12.1934 9.19974 12.3876 8.71136 12.3876H5.53516L5.61486 9.18257C5.62673 8.71114 5.8192 8.26176 6.15327 7.92769Z" stroke="#00C2FF" stroke-width="1.5" stroke-linecap="round" stroke-linejoin="round"/>
<path d="M11.5266 2.56982L15.3981 6.44129" stroke="#00C2FF" stroke-width="1.5" stroke-linecap="round" stroke-linejoin="round"/>
</svg>
