<svg width="21" height="20" viewBox="0 0 21 20" fill="none" xmlns="http://www.w3.org/2000/svg">
<path d="M14.7556 0.244806C14.639 0.12797 14.4904 0.0483688 14.3286 0.0160932C14.1667 -0.0161823 13.999 0.000321574 13.8465 0.0635127C13.6941 0.126704 13.5638 0.233736 13.4723 0.371041C13.3808 0.508346 13.332 0.66974 13.3323 0.834762V3.35791C10.6659 3.50456 8.63269 4.3745 7.18946 5.88272C5.61625 7.5276 4.84631 9.81743 4.58632 12.4172C4.56855 12.5887 4.60438 12.7614 4.68888 12.9117C4.77338 13.0619 4.90239 13.1822 5.05814 13.2561C5.21388 13.3299 5.3887 13.3537 5.5585 13.324C5.7283 13.2944 5.88472 13.2128 6.00622 13.0905C7.57944 11.5156 9.01933 10.7607 10.3326 10.384C11.3692 10.0874 12.3541 10.0191 13.3323 10.0041V12.5006C13.332 12.6656 13.3808 12.827 13.4723 12.9643C13.5638 13.1016 13.6941 13.2086 13.8465 13.2718C13.999 13.335 14.1667 13.3515 14.3286 13.3192C14.4904 13.287 14.639 13.2074 14.7556 13.0905L20.5885 7.25762C20.6661 7.18021 20.7276 7.08826 20.7696 6.98703C20.8116 6.88579 20.8333 6.77726 20.8333 6.66766C20.8333 6.55806 20.8116 6.44953 20.7696 6.3483C20.7276 6.24706 20.6661 6.15511 20.5885 6.0777L14.7556 0.244806V0.244806ZM14.9989 4.16785V2.84628L18.8203 6.66766L14.9989 10.489V9.16747C14.9989 8.94648 14.9111 8.73453 14.7548 8.57826C14.5986 8.42199 14.3866 8.3342 14.1656 8.3342H14.1323C12.899 8.3342 11.4458 8.3342 9.87426 8.78417C8.71159 9.12099 7.61603 9.65664 6.63617 10.3674C7.00281 9.00249 7.57944 7.88424 8.39271 7.0343C9.59262 5.78273 11.4158 5.00112 14.1656 5.00112C14.3866 5.00112 14.5986 4.91333 14.7548 4.75706C14.9111 4.60079 14.9989 4.38884 14.9989 4.16785ZM1.66654 5.83439C1.66654 5.1714 1.92992 4.53556 2.39872 4.06675C2.86753 3.59795 3.50336 3.33458 4.16636 3.33458H5.8329C6.0539 3.33458 6.26584 3.24679 6.42211 3.09052C6.57838 2.93425 6.66617 2.7223 6.66617 2.5013C6.66617 2.28031 6.57838 2.06836 6.42211 1.91209C6.26584 1.75582 6.0539 1.66803 5.8329 1.66803H4.16636C3.06137 1.66803 2.00164 2.10699 1.2203 2.88833C0.438954 3.66967 0 4.7294 0 5.83439V15.8336C0 16.9386 0.438954 17.9984 1.2203 18.7797C2.00164 19.561 3.06137 20 4.16636 20H14.1656C15.2706 20 16.3303 19.561 17.1117 18.7797C17.893 17.9984 18.332 16.9386 18.332 15.8336V14.1671C18.332 13.9461 18.2442 13.7342 18.0879 13.5779C17.9316 13.4216 17.7197 13.3338 17.4987 13.3338C17.2777 13.3338 17.0658 13.4216 16.9095 13.5779C16.7532 13.7342 16.6654 13.9461 16.6654 14.1671V15.8336C16.6654 16.4966 16.4021 17.1325 15.9332 17.6013C15.4644 18.0701 14.8286 18.3335 14.1656 18.3335H4.16636C3.50336 18.3335 2.86753 18.0701 2.39872 17.6013C1.92992 17.1325 1.66654 16.4966 1.66654 15.8336V5.83439Z" fill="#00C2FF"/>
</svg>
