<svg width="21" height="20" viewBox="0 0 21 20" fill="none" xmlns="http://www.w3.org/2000/svg">
<path d="M14.1741 0.865531C14.0622 0.753299 13.9194 0.676834 13.764 0.64583C13.6085 0.614826 13.4474 0.63068 13.3009 0.691381C13.1545 0.752082 13.0294 0.854897 12.9414 0.986792C12.8535 1.11869 12.8067 1.27372 12.807 1.43224V3.85596C10.2456 3.99684 8.29253 4.8325 6.90617 6.28129C5.39494 7.86135 4.65534 10.0609 4.4056 12.5583C4.38853 12.723 4.42295 12.8889 4.50412 13.0333C4.58529 13.1776 4.70922 13.2932 4.85883 13.3641C5.00843 13.435 5.17636 13.4578 5.33947 13.4294C5.50258 13.4009 5.65284 13.3225 5.76955 13.2051C7.28077 11.6922 8.66393 10.967 9.92542 10.6052C10.9212 10.3203 11.8673 10.2547 12.807 10.2402V12.6384C12.8067 12.7969 12.8535 12.9519 12.9414 13.0838C13.0294 13.2157 13.1545 13.3185 13.3009 13.3792C13.4474 13.4399 13.6085 13.4558 13.764 13.4248C13.9194 13.3938 14.0622 13.3173 14.1741 13.2051L19.7772 7.60201C19.8517 7.52765 19.9109 7.43932 19.9512 7.34208C19.9916 7.24483 20.0124 7.14058 20.0124 7.0353C20.0124 6.93001 19.9916 6.82576 19.9512 6.72852C19.9109 6.63127 19.8517 6.54294 19.7772 6.46859L14.1741 0.865531V0.865531ZM14.4079 4.63399V3.36449L18.0787 7.0353L14.4079 10.7061V9.43661C14.4079 9.22432 14.3235 9.02072 14.1734 8.87061C14.0233 8.7205 13.8197 8.63617 13.6074 8.63617H13.5754C12.3908 8.63617 10.9948 8.63617 9.48518 9.06841C8.36831 9.39195 7.31592 9.9065 6.37468 10.5892C6.72687 9.27812 7.28077 8.20393 8.062 7.38749C9.21463 6.18523 10.966 5.43442 13.6074 5.43442C13.8197 5.43442 14.0233 5.35009 14.1734 5.19998C14.3235 5.04987 14.4079 4.84628 14.4079 4.63399ZM1.60087 6.23486C1.60087 5.59799 1.85387 4.98721 2.3042 4.53688C2.75453 4.08654 3.36532 3.83355 4.00218 3.83355H5.60306C5.81535 3.83355 6.01894 3.74922 6.16905 3.59911C6.31916 3.449 6.40349 3.2454 6.40349 3.03311C6.40349 2.82082 6.31916 2.61723 6.16905 2.46712C6.01894 2.31701 5.81535 2.23268 5.60306 2.23268H4.00218C2.94074 2.23268 1.92277 2.65433 1.17221 3.40489C0.421657 4.15544 0 5.17342 0 6.23486V15.8401C0 16.9015 0.421657 17.9195 1.17221 18.6701C1.92277 19.4206 2.94074 19.8423 4.00218 19.8423H13.6074C14.6689 19.8423 15.6868 19.4206 16.4374 18.6701C17.188 17.9195 17.6096 16.9015 17.6096 15.8401V14.2392C17.6096 14.0269 17.5253 13.8233 17.3752 13.6732C17.2251 13.5231 17.0215 13.4388 16.8092 13.4388C16.5969 13.4388 16.3933 13.5231 16.2432 13.6732C16.0931 13.8233 16.0087 14.0269 16.0087 14.2392V15.8401C16.0087 16.477 15.7557 17.0878 15.3054 17.5381C14.8551 17.9884 14.2443 18.2414 13.6074 18.2414H4.00218C3.36532 18.2414 2.75453 17.9884 2.3042 17.5381C1.85387 17.0878 1.60087 16.477 1.60087 15.8401V6.23486Z" fill="#111111"/>
</svg>
