<svg width="189" height="32" viewBox="0 0 189 32" fill="none" xmlns="http://www.w3.org/2000/svg">
<path d="M0 16.0796C0 7.28699 7.12781 0.15918 15.9204 0.15918H71.6418C80.4344 0.15918 87.5622 7.28699 87.5622 16.0796V32H15.9204C7.12781 32 0 24.8722 0 16.0796Z" fill="#00C2FF"/>
<path d="M23.8567 11.9562C25.4487 11.9562 26.7303 12.4338 27.7015 13.3891C28.6885 14.3443 29.1821 15.7612 29.1821 17.6398V24.995H25.4567V18.2129C25.4567 17.194 25.2338 16.4378 24.788 15.9443C24.3423 15.4348 23.6975 15.1801 22.8537 15.1801C21.9144 15.1801 21.1661 15.4746 20.6089 16.0637C20.0517 16.6368 19.7731 17.4965 19.7731 18.6428V24.995H16.0477V7.27563H19.7731V13.4846C20.2666 12.9911 20.8637 12.6169 21.5641 12.3622C22.2646 12.0916 23.0288 11.9562 23.8567 11.9562Z" fill="white"/>
<path d="M45.2839 18.6189C45.2839 18.6667 45.26 19.001 45.2123 19.6219H35.4929C35.668 20.4179 36.0819 21.0468 36.7347 21.5085C37.3874 21.9702 38.1993 22.201 39.1705 22.201C39.8392 22.201 40.4282 22.1055 40.9377 21.9144C41.463 21.7075 41.9486 21.3891 42.3944 20.9592L44.3765 23.1085C43.1665 24.4935 41.3993 25.1861 39.075 25.1861C37.6262 25.1861 36.3446 24.9075 35.2302 24.3503C34.1158 23.7771 33.2561 22.9891 32.6511 21.9861C32.0461 20.9831 31.7436 19.8448 31.7436 18.5712C31.7436 17.3134 32.0382 16.1831 32.6272 15.1801C33.2322 14.1612 34.0521 13.3731 35.0869 12.8159C36.1377 12.2428 37.3078 11.9562 38.5974 11.9562C39.8551 11.9562 40.9934 12.2269 42.0123 12.7682C43.0312 13.3095 43.8272 14.0896 44.4003 15.1085C44.9894 16.1115 45.2839 17.2816 45.2839 18.6189ZM38.6212 14.7741C37.7775 14.7741 37.069 15.0129 36.4959 15.4906C35.9227 15.9682 35.5725 16.6209 35.4451 17.4488H41.7735C41.6461 16.6368 41.2959 15.9921 40.7227 15.5144C40.1496 15.0209 39.4491 14.7741 38.6212 14.7741Z" fill="white"/>
<path d="M47.7641 7.27563H51.4895V24.995H47.7641V7.27563Z" fill="white"/>
<path d="M54.947 7.27563H58.6724V24.995H54.947V7.27563Z" fill="white"/>
<path d="M68.2433 25.1861C66.89 25.1861 65.6721 24.9075 64.5895 24.3503C63.5229 23.7771 62.687 22.9891 62.0821 21.9861C61.4771 20.9831 61.1746 19.8448 61.1746 18.5712C61.1746 17.2975 61.4771 16.1592 62.0821 15.1562C62.687 14.1532 63.5229 13.3731 64.5895 12.8159C65.6721 12.2428 66.89 11.9562 68.2433 11.9562C69.5965 11.9562 70.8064 12.2428 71.8731 12.8159C72.9398 13.3731 73.7756 14.1532 74.3806 15.1562C74.9855 16.1592 75.288 17.2975 75.288 18.5712C75.288 19.8448 74.9855 20.9831 74.3806 21.9861C73.7756 22.9891 72.9398 23.7771 71.8731 24.3503C70.8064 24.9075 69.5965 25.1861 68.2433 25.1861ZM68.2433 22.1294C69.1985 22.1294 69.9786 21.811 70.5836 21.1741C71.2045 20.5214 71.5149 19.6537 71.5149 18.5712C71.5149 17.4886 71.2045 16.6289 70.5836 15.9921C69.9786 15.3393 69.1985 15.0129 68.2433 15.0129C67.288 15.0129 66.5 15.3393 65.8791 15.9921C65.2582 16.6289 64.9477 17.4886 64.9477 18.5712C64.9477 19.6537 65.2582 20.5214 65.8791 21.1741C66.5 21.811 67.288 22.1294 68.2433 22.1294Z" fill="white"/>
<path d="M103.276 10.0537C104.47 10.0537 105.552 10.3323 106.523 10.8895C107.51 11.4308 108.283 12.2029 108.84 13.2059C109.397 14.193 109.676 15.3472 109.676 16.6686C109.676 17.99 109.397 19.1522 108.84 20.1552C108.283 21.1422 107.51 21.9144 106.523 22.4716C105.552 23.0129 104.47 23.2835 103.276 23.2835C101.636 23.2835 100.346 22.7661 99.407 21.7313V27.7253H95.6816V10.2447H99.2398V11.7253C100.163 10.6109 101.509 10.0537 103.276 10.0537ZM102.631 20.2268C103.586 20.2268 104.366 19.9084 104.971 19.2716C105.592 18.6189 105.903 17.7512 105.903 16.6686C105.903 15.586 105.592 14.7263 104.971 14.0895C104.366 13.4368 103.586 13.1104 102.631 13.1104C101.676 13.1104 100.888 13.4368 100.267 14.0895C99.6617 14.7263 99.3593 15.586 99.3593 16.6686C99.3593 17.7512 99.6617 18.6189 100.267 19.2716C100.888 19.9084 101.676 20.2268 102.631 20.2268Z" fill="#555555"/>
<path d="M115.728 11.9403C116.173 11.3194 116.771 10.8497 117.519 10.5313C118.283 10.2129 119.159 10.0537 120.146 10.0537V13.4925C119.732 13.4607 119.453 13.4447 119.31 13.4447C118.243 13.4447 117.407 13.7472 116.802 14.3522C116.197 14.9412 115.895 15.8328 115.895 17.0268V23.0925H112.17V10.2447H115.728V11.9403Z" fill="#555555"/>
<path d="M128.358 23.2835C127.004 23.2835 125.786 23.0049 124.704 22.4477C123.637 21.8746 122.801 21.0865 122.196 20.0835C121.591 19.0806 121.289 17.9422 121.289 16.6686C121.289 15.395 121.591 14.2567 122.196 13.2537C122.801 12.2507 123.637 11.4706 124.704 10.9134C125.786 10.3403 127.004 10.0537 128.358 10.0537C129.711 10.0537 130.921 10.3403 131.987 10.9134C133.054 11.4706 133.89 12.2507 134.495 13.2537C135.1 14.2567 135.402 15.395 135.402 16.6686C135.402 17.9422 135.1 19.0806 134.495 20.0835C133.89 21.0865 133.054 21.8746 131.987 22.4477C130.921 23.0049 129.711 23.2835 128.358 23.2835ZM128.358 20.2268C129.313 20.2268 130.093 19.9084 130.698 19.2716C131.319 18.6189 131.629 17.7512 131.629 16.6686C131.629 15.586 131.319 14.7263 130.698 14.0895C130.093 13.4368 129.313 13.1104 128.358 13.1104C127.402 13.1104 126.614 13.4368 125.993 14.0895C125.372 14.7263 125.062 15.586 125.062 16.6686C125.062 17.7512 125.372 18.6189 125.993 19.2716C126.614 19.9084 127.402 20.2268 128.358 20.2268Z" fill="#555555"/>
<path d="M141.976 10.5313H145.272V13.397H142.072V23.0925H138.346V13.397H136.364V10.5313H138.346V9.95816C138.346 8.49349 138.776 7.3313 139.636 6.4716C140.511 5.61189 141.737 5.18204 143.313 5.18204C143.871 5.18204 144.396 5.24573 144.889 5.37309C145.399 5.48453 145.821 5.6517 146.155 5.87458L145.176 8.57309C144.746 8.2706 144.245 8.11936 143.672 8.11936C142.541 8.11936 141.976 8.74025 141.976 9.98204V10.5313ZM149.045 10.2447H152.77V23.0925H149.045V10.2447ZM150.907 8.45369C150.223 8.45369 149.666 8.25468 149.236 7.85667C148.806 7.45866 148.591 6.96513 148.591 6.37607C148.591 5.78702 148.806 5.29349 149.236 4.89548C149.666 4.49747 150.223 4.29846 150.907 4.29846C151.592 4.29846 152.149 4.48951 152.579 4.8716C153.009 5.25369 153.224 5.7313 153.224 6.30443C153.224 6.92533 153.009 7.44274 152.579 7.85667C152.149 8.25468 151.592 8.45369 150.907 8.45369Z" fill="#555555"/>
<path d="M156.223 5.37309H159.948V23.0925H156.223V5.37309Z" fill="#555555"/>
<path d="M175.991 16.7164C175.991 16.7641 175.967 17.0985 175.919 17.7194H166.2C166.375 18.5154 166.789 19.1442 167.441 19.6059C168.094 20.0676 168.906 20.2985 169.877 20.2985C170.546 20.2985 171.135 20.2029 171.644 20.0119C172.17 19.8049 172.655 19.4865 173.101 19.0567L175.083 21.2059C173.873 22.591 172.106 23.2835 169.782 23.2835C168.333 23.2835 167.051 23.0049 165.937 22.4477C164.822 21.8746 163.963 21.0865 163.358 20.0835C162.753 19.0806 162.45 17.9422 162.45 16.6686C162.45 15.4109 162.745 14.2806 163.334 13.2776C163.939 12.2587 164.759 11.4706 165.794 10.9134C166.844 10.3403 168.014 10.0537 169.304 10.0537C170.562 10.0537 171.7 10.3243 172.719 10.8656C173.738 11.4069 174.534 12.187 175.107 13.2059C175.696 14.2089 175.991 15.3791 175.991 16.7164ZM169.328 12.8716C168.484 12.8716 167.776 13.1104 167.203 13.588C166.629 14.0656 166.279 14.7184 166.152 15.5462H172.48C172.353 14.7343 172.003 14.0895 171.429 13.6119C170.856 13.1184 170.156 12.8716 169.328 12.8716Z" fill="#555555"/>
<path d="M183.328 0.603299H182.1V3.77062H181.27V0.603299H180.06V0H183.328V0.603299ZM184.878 0L185.908 2.72323L186.935 0H188.02V3.77062H187.182V2.72323L187.274 0.938465L186.189 3.77062H185.623L184.543 0.942655L184.626 2.72323V3.77062H183.801V0H184.878Z" fill="#555555"/>
</svg>
