<svg width="547" height="346" viewBox="0 0 547 346" fill="none" xmlns="http://www.w3.org/2000/svg">
<g filter="url(#filter0_d_2_1705)">
<path d="M30 33C30 28.5817 33.5817 25 38 25H509C513.418 25 517 28.5817 517 33V229C517 233.418 513.418 237 509 237H38C33.5817 237 30 233.418 30 229V33Z" fill="#00C2FF"/>
<path d="M143.787 87.056C143.787 90.64 142.368 92.9547 139.531 94L145.195 102H139.051L134.091 94.864H130.635V102H125.643V79.632H134.123C137.6 79.632 140.075 80.2187 141.547 81.392C143.04 82.5653 143.787 84.4533 143.787 87.056ZM134.283 90.544C135.989 90.544 137.152 90.2667 137.771 89.712C138.389 89.1573 138.699 88.2827 138.699 87.088C138.699 85.872 138.379 85.04 137.739 84.592C137.099 84.144 135.979 83.92 134.379 83.92H130.635V90.544H134.283ZM163.325 99.504C161.383 101.339 159.101 102.256 156.477 102.256C153.874 102.256 151.719 101.456 150.013 99.856C148.306 98.2347 147.453 96.0693 147.453 93.36C147.453 90.6507 148.317 88.496 150.045 86.896C151.794 85.296 153.853 84.496 156.221 84.496C158.589 84.496 160.594 85.2107 162.237 86.64C163.901 88.0693 164.733 90.032 164.733 92.528V95.088H152.189C152.338 96.0267 152.829 96.7947 153.661 97.392C154.493 97.9893 155.431 98.288 156.477 98.288C158.162 98.288 159.549 97.7227 160.637 96.592L163.325 99.504ZM159.869 91.664C159.762 90.64 159.378 89.8507 158.717 89.296C158.055 88.7413 157.245 88.464 156.285 88.464C155.346 88.464 154.482 88.752 153.693 89.328C152.903 89.904 152.445 90.6827 152.317 91.664H159.869ZM175.074 102.256C173.047 102.256 171.234 101.392 169.634 99.664C168.034 97.936 167.234 95.792 167.234 93.232C167.234 90.672 168.013 88.5813 169.57 86.96C171.127 85.3173 172.951 84.496 175.042 84.496C177.133 84.496 178.839 85.232 180.162 86.704V78.256H184.962V102H180.162V99.728C178.818 101.413 177.122 102.256 175.074 102.256ZM172.066 93.424C172.066 94.8107 172.482 95.952 173.314 96.848C174.146 97.7227 175.117 98.16 176.226 98.16C177.335 98.16 178.274 97.7227 179.042 96.848C179.831 95.952 180.226 94.8107 180.226 93.424C180.226 92.016 179.831 90.8533 179.042 89.936C178.274 88.9973 177.325 88.528 176.194 88.528C175.063 88.528 174.093 88.9973 173.282 89.936C172.471 90.8747 172.066 92.0373 172.066 93.424ZM204.418 99.504C202.477 101.339 200.194 102.256 197.57 102.256C194.968 102.256 192.813 101.456 191.106 99.856C189.4 98.2347 188.546 96.0693 188.546 93.36C188.546 90.6507 189.41 88.496 191.138 86.896C192.888 85.296 194.946 84.496 197.314 84.496C199.682 84.496 201.688 85.2107 203.33 86.64C204.994 88.0693 205.826 90.032 205.826 92.528V95.088H193.282C193.432 96.0267 193.922 96.7947 194.754 97.392C195.586 97.9893 196.525 98.288 197.57 98.288C199.256 98.288 200.642 97.7227 201.73 96.592L204.418 99.504ZM200.962 91.664C200.856 90.64 200.472 89.8507 199.81 89.296C199.149 88.7413 198.338 88.464 197.378 88.464C196.44 88.464 195.576 88.752 194.786 89.328C193.997 89.904 193.538 90.6827 193.41 91.664H200.962ZM214.859 83.792V84.944H219.019V88.4H214.859V102H210.027V88.4H208.011V84.944H210.027V83.888C210.027 82.0107 210.593 80.528 211.723 79.44C212.875 78.3307 214.294 77.776 215.979 77.776C217.686 77.776 219.233 78.416 220.619 79.696L218.891 82.928C218.187 82.1173 217.409 81.712 216.555 81.712C216.065 81.712 215.659 81.8933 215.339 82.256C215.019 82.5973 214.859 83.1093 214.859 83.792ZM226.806 102H222.006V84.784H226.806V102ZM222.39 82.608C221.857 82.0533 221.59 81.3813 221.59 80.592C221.59 79.8027 221.857 79.1413 222.39 78.608C222.945 78.0533 223.617 77.776 224.406 77.776C225.196 77.776 225.857 78.0533 226.39 78.608C226.945 79.1413 227.222 79.8027 227.222 80.592C227.222 81.3813 226.945 82.0533 226.39 82.608C225.857 83.1413 225.196 83.408 224.406 83.408C223.617 83.408 222.945 83.1413 222.39 82.608ZM236.15 92.4V102H231.35V84.784H236.15V86.704C237.601 85.232 239.233 84.496 241.046 84.496C242.859 84.496 244.374 85.136 245.59 86.416C246.827 87.696 247.446 89.4027 247.446 91.536V102H242.646V92.272C242.646 89.6267 241.675 88.304 239.734 88.304C238.774 88.304 237.931 88.656 237.206 89.36C236.502 90.0427 236.15 91.056 236.15 92.4ZM266.7 99.504C264.758 101.339 262.476 102.256 259.852 102.256C257.249 102.256 255.094 101.456 253.388 99.856C251.681 98.2347 250.828 96.0693 250.828 93.36C250.828 90.6507 251.692 88.496 253.42 86.896C255.169 85.296 257.228 84.496 259.596 84.496C261.964 84.496 263.969 85.2107 265.612 86.64C267.276 88.0693 268.108 90.032 268.108 92.528V95.088H255.564C255.713 96.0267 256.204 96.7947 257.036 97.392C257.868 97.9893 258.806 98.288 259.852 98.288C261.537 98.288 262.924 97.7227 264.012 96.592L266.7 99.504ZM263.244 91.664C263.137 90.64 262.753 89.8507 262.092 89.296C261.43 88.7413 260.62 88.464 259.66 88.464C258.721 88.464 257.857 88.752 257.068 89.328C256.278 89.904 255.82 90.6827 255.692 91.664H263.244ZM284.806 92.72V102H280.006V78.256H284.806V86.704C286.257 85.232 287.878 84.496 289.67 84.496C291.484 84.496 293.009 85.136 294.246 86.416C295.484 87.696 296.102 89.4027 296.102 91.536V102H291.302V92.592C291.302 89.9467 290.332 88.624 288.39 88.624C287.43 88.624 286.588 88.976 285.862 89.68C285.158 90.3627 284.806 91.376 284.806 92.72ZM304.284 93.392C304.284 94.8 304.679 95.952 305.468 96.848C306.279 97.7227 307.303 98.16 308.54 98.16C309.799 98.16 310.823 97.7227 311.612 96.848C312.423 95.952 312.828 94.8 312.828 93.392C312.828 91.984 312.423 90.832 311.612 89.936C310.823 89.04 309.799 88.592 308.54 88.592C307.303 88.592 306.279 89.04 305.468 89.936C304.679 90.832 304.284 91.984 304.284 93.392ZM317.66 93.392C317.66 95.888 316.796 97.9893 315.068 99.696C313.34 101.403 311.164 102.256 308.54 102.256C305.937 102.256 303.772 101.403 302.044 99.696C300.316 97.9893 299.452 95.888 299.452 93.392C299.452 90.896 300.316 88.7947 302.044 87.088C303.772 85.36 305.937 84.496 308.54 84.496C311.164 84.496 313.34 85.36 315.068 87.088C316.796 88.7947 317.66 90.896 317.66 93.392ZM329.873 102H324.913L319.057 84.784H324.017L327.377 95.184L330.737 84.784H335.377L338.737 95.184L342.097 84.784H347.089L341.233 102H336.241L333.073 92.624L329.873 102ZM361.201 108.784C359.516 108.784 357.926 108.101 356.433 106.736L358.609 103.184C359.42 103.973 360.252 104.368 361.105 104.368C361.553 104.368 361.937 104.144 362.257 103.696C362.577 103.269 362.737 102.811 362.737 102.32C362.737 101.829 360.518 95.984 356.081 84.784H361.201L365.393 95.504L369.585 84.784H374.705L366.705 105.072C366.236 106.245 365.5 107.152 364.497 107.792C363.516 108.453 362.417 108.784 361.201 108.784ZM380.534 93.392C380.534 94.8 380.929 95.952 381.718 96.848C382.529 97.7227 383.553 98.16 384.79 98.16C386.049 98.16 387.073 97.7227 387.862 96.848C388.673 95.952 389.078 94.8 389.078 93.392C389.078 91.984 388.673 90.832 387.862 89.936C387.073 89.04 386.049 88.592 384.79 88.592C383.553 88.592 382.529 89.04 381.718 89.936C380.929 90.832 380.534 91.984 380.534 93.392ZM393.91 93.392C393.91 95.888 393.046 97.9893 391.318 99.696C389.59 101.403 387.414 102.256 384.79 102.256C382.187 102.256 380.022 101.403 378.294 99.696C376.566 97.9893 375.702 95.888 375.702 93.392C375.702 90.896 376.566 88.7947 378.294 87.088C380.022 85.36 382.187 84.496 384.79 84.496C387.414 84.496 389.59 85.36 391.318 87.088C393.046 88.7947 393.91 90.896 393.91 93.392ZM408.579 94.064V84.784H413.411V102H408.579V99.728C407.384 101.413 405.838 102.256 403.939 102.256C402.062 102.256 400.483 101.669 399.203 100.496C397.923 99.3013 397.283 97.5413 397.283 95.216V84.784H402.115V94.16C402.115 96.8053 403.086 98.128 405.027 98.128C405.987 98.128 406.819 97.7867 407.523 97.104C408.227 96.4 408.579 95.3867 408.579 94.064ZM95.4186 138C97.0186 138 98.4586 137.2 99.7386 135.6L102.587 138.8C100.368 141.104 97.968 142.256 95.3866 142.256C92.8053 142.256 90.6186 141.445 88.8266 139.824C87.056 138.181 86.1706 136.048 86.1706 133.424C86.1706 130.779 87.0666 128.635 88.8586 126.992C90.672 125.328 92.816 124.496 95.2906 124.496C96.528 124.496 97.776 124.752 99.0346 125.264C100.315 125.776 101.435 126.533 102.395 127.536L99.8986 130.8C99.344 130.139 98.6613 129.627 97.8506 129.264C97.0613 128.901 96.272 128.72 95.4826 128.72C94.224 128.72 93.136 129.136 92.2186 129.968C91.3226 130.779 90.8746 131.92 90.8746 133.392C90.8746 134.843 91.3226 135.973 92.2186 136.784C93.136 137.595 94.2026 138 95.4186 138ZM109.346 133.392C109.346 134.8 109.741 135.952 110.53 136.848C111.341 137.723 112.365 138.16 113.602 138.16C114.861 138.16 115.885 137.723 116.674 136.848C117.485 135.952 117.89 134.8 117.89 133.392C117.89 131.984 117.485 130.832 116.674 129.936C115.885 129.04 114.861 128.592 113.602 128.592C112.365 128.592 111.341 129.04 110.53 129.936C109.741 130.832 109.346 131.984 109.346 133.392ZM122.722 133.392C122.722 135.888 121.858 137.989 120.13 139.696C118.402 141.403 116.226 142.256 113.602 142.256C111 142.256 108.834 141.403 107.106 139.696C105.378 137.989 104.514 135.888 104.514 133.392C104.514 130.896 105.378 128.795 107.106 127.088C108.834 125.36 111 124.496 113.602 124.496C116.226 124.496 118.402 125.36 120.13 127.088C121.858 128.795 122.722 130.896 122.722 133.392ZM142.096 132.72V142H137.264V132.592C137.264 131.227 137.05 130.224 136.624 129.584C136.218 128.944 135.546 128.624 134.608 128.624C133.69 128.624 132.869 128.976 132.144 129.68C131.44 130.363 131.088 131.376 131.088 132.72V142H126.288V124.784H131.088V126.736C132.41 125.243 133.925 124.496 135.632 124.496C136.72 124.496 137.701 124.816 138.576 125.456C139.472 126.096 140.144 126.875 140.592 127.792C141.253 126.747 142.138 125.936 143.248 125.36C144.378 124.784 145.509 124.496 146.64 124.496C148.666 124.496 150.298 125.104 151.536 126.32C152.773 127.515 153.392 129.253 153.392 131.536V142H148.56V132.592C148.56 129.947 147.589 128.624 145.648 128.624C144.688 128.624 143.856 128.976 143.152 129.68C142.448 130.363 142.096 131.376 142.096 132.72ZM173.564 132.72V142H168.732V132.592C168.732 131.227 168.519 130.224 168.092 129.584C167.687 128.944 167.015 128.624 166.076 128.624C165.159 128.624 164.338 128.976 163.612 129.68C162.908 130.363 162.556 131.376 162.556 132.72V142H157.756V124.784H162.556V126.736C163.879 125.243 165.394 124.496 167.1 124.496C168.188 124.496 169.17 124.816 170.044 125.456C170.94 126.096 171.612 126.875 172.06 127.792C172.722 126.747 173.607 125.936 174.716 125.36C175.847 124.784 176.978 124.496 178.108 124.496C180.135 124.496 181.767 125.104 183.004 126.32C184.242 127.515 184.86 129.253 184.86 131.536V142H180.028V132.592C180.028 129.947 179.058 128.624 177.116 128.624C176.156 128.624 175.324 128.976 174.62 129.68C173.916 130.363 173.564 131.376 173.564 132.72ZM200.329 134.064V124.784H205.161V142H200.329V139.728C199.134 141.413 197.588 142.256 195.689 142.256C193.812 142.256 192.233 141.669 190.953 140.496C189.673 139.301 189.033 137.541 189.033 135.216V124.784H193.865V134.16C193.865 136.805 194.836 138.128 196.777 138.128C197.737 138.128 198.569 137.787 199.273 137.104C199.977 136.4 200.329 135.387 200.329 134.064ZM214.494 132.4V142H209.694V124.784H214.494V126.704C215.945 125.232 217.577 124.496 219.39 124.496C221.203 124.496 222.718 125.136 223.934 126.416C225.171 127.696 225.79 129.403 225.79 131.536V142H220.99V132.272C220.99 129.627 220.019 128.304 218.078 128.304C217.118 128.304 216.275 128.656 215.55 129.36C214.846 130.043 214.494 131.056 214.494 132.4ZM234.931 142H230.131V124.784H234.931V142ZM230.515 122.608C229.982 122.053 229.715 121.381 229.715 120.592C229.715 119.803 229.982 119.141 230.515 118.608C231.07 118.053 231.742 117.776 232.531 117.776C233.321 117.776 233.982 118.053 234.515 118.608C235.07 119.141 235.347 119.803 235.347 120.592C235.347 121.381 235.07 122.053 234.515 122.608C233.982 123.141 233.321 123.408 232.531 123.408C231.742 123.408 231.07 123.141 230.515 122.608ZM247.731 138C249.331 138 250.771 137.2 252.051 135.6L254.899 138.8C252.68 141.104 250.28 142.256 247.699 142.256C245.118 142.256 242.931 141.445 241.139 139.824C239.368 138.181 238.483 136.048 238.483 133.424C238.483 130.779 239.379 128.635 241.171 126.992C242.984 125.328 245.128 124.496 247.603 124.496C248.84 124.496 250.088 124.752 251.347 125.264C252.627 125.776 253.747 126.533 254.707 127.536L252.211 130.8C251.656 130.139 250.974 129.627 250.163 129.264C249.374 128.901 248.584 128.72 247.795 128.72C246.536 128.72 245.448 129.136 244.531 129.968C243.635 130.779 243.187 131.92 243.187 133.392C243.187 134.843 243.635 135.973 244.531 136.784C245.448 137.595 246.515 138 247.731 138ZM272.724 142H268.212V139.92C266.975 141.477 265.439 142.256 263.604 142.256C261.791 142.256 260.265 141.733 259.028 140.688C257.791 139.621 257.172 138.213 257.172 136.464C257.172 134.693 257.812 133.371 259.092 132.496C260.372 131.621 262.121 131.184 264.34 131.184H267.924V131.088C267.924 129.253 266.953 128.336 265.012 128.336C264.18 128.336 263.295 128.507 262.356 128.848C261.439 129.168 260.66 129.573 260.02 130.064L257.876 126.96C260.137 125.317 262.719 124.496 265.62 124.496C267.711 124.496 269.417 125.019 270.74 126.064C272.063 127.109 272.724 128.763 272.724 131.024V142ZM267.892 135.44V134.608H264.884C262.964 134.608 262.004 135.205 262.004 136.4C262.004 137.019 262.228 137.499 262.676 137.84C263.145 138.16 263.807 138.32 264.66 138.32C265.513 138.32 266.26 138.064 266.9 137.552C267.561 137.019 267.892 136.315 267.892 135.44ZM282.641 128.24V135.952C282.641 136.613 282.811 137.136 283.153 137.52C283.494 137.883 283.899 138.064 284.369 138.064C285.265 138.064 286.022 137.659 286.641 136.848L288.433 140.208C286.939 141.573 285.361 142.256 283.697 142.256C282.054 142.256 280.657 141.712 279.505 140.624C278.374 139.536 277.809 138.053 277.809 136.176V128.24H275.793V124.784H277.809V119.632H282.641V124.784H286.801V128.24H282.641ZM305.918 139.504C303.977 141.339 301.694 142.256 299.07 142.256C296.468 142.256 294.313 141.456 292.606 139.856C290.9 138.235 290.046 136.069 290.046 133.36C290.046 130.651 290.91 128.496 292.638 126.896C294.388 125.296 296.446 124.496 298.814 124.496C301.182 124.496 303.188 125.211 304.83 126.64C306.494 128.069 307.326 130.032 307.326 132.528V135.088H294.782C294.932 136.027 295.422 136.795 296.254 137.392C297.086 137.989 298.025 138.288 299.07 138.288C300.756 138.288 302.142 137.723 303.23 136.592L305.918 139.504ZM302.462 131.664C302.356 130.64 301.972 129.851 301.31 129.296C300.649 128.741 299.838 128.464 298.878 128.464C297.94 128.464 297.076 128.752 296.286 129.328C295.497 129.904 295.038 130.683 294.91 131.664H302.462ZM311.428 141.616C310.681 141.083 310.308 140.389 310.308 139.536C310.308 138.683 310.596 137.989 311.172 137.456C311.748 136.901 312.441 136.624 313.252 136.624C314.062 136.624 314.756 136.891 315.332 137.424C315.929 137.957 316.228 138.587 316.228 139.312C316.228 140.016 315.918 140.869 315.3 141.872L313.38 145.168H310.212L311.428 141.616ZM333.525 132.4V142H328.725V124.784H333.525V126.704C334.976 125.232 336.608 124.496 338.421 124.496C340.234 124.496 341.749 125.136 342.965 126.416C344.202 127.696 344.821 129.403 344.821 131.536V142H340.021V132.272C340.021 129.627 339.05 128.304 337.109 128.304C336.149 128.304 335.306 128.656 334.581 129.36C333.877 130.043 333.525 131.056 333.525 132.4ZM364.075 139.504C362.133 141.339 359.851 142.256 357.227 142.256C354.624 142.256 352.469 141.456 350.763 139.856C349.056 138.235 348.203 136.069 348.203 133.36C348.203 130.651 349.067 128.496 350.795 126.896C352.544 125.296 354.603 124.496 356.971 124.496C359.339 124.496 361.344 125.211 362.987 126.64C364.651 128.069 365.483 130.032 365.483 132.528V135.088H352.939C353.088 136.027 353.579 136.795 354.411 137.392C355.243 137.989 356.181 138.288 357.227 138.288C358.912 138.288 360.299 137.723 361.387 136.592L364.075 139.504ZM360.619 131.664C360.512 130.64 360.128 129.851 359.467 129.296C358.805 128.741 357.995 128.464 357.035 128.464C356.096 128.464 355.232 128.752 354.443 129.328C353.653 129.904 353.195 130.683 353.067 131.664H360.619ZM374.484 128.24V135.952C374.484 136.613 374.655 137.136 374.996 137.52C375.338 137.883 375.743 138.064 376.212 138.064C377.108 138.064 377.866 137.659 378.484 136.848L380.276 140.208C378.783 141.573 377.204 142.256 375.54 142.256C373.898 142.256 372.5 141.712 371.348 140.624C370.218 139.536 369.652 138.053 369.652 136.176V128.24H367.636V124.784H369.652V119.632H374.484V124.784H378.644V128.24H374.484ZM391.81 142H386.85L380.994 124.784H385.954L389.314 135.184L392.674 124.784H397.314L400.674 135.184L404.034 124.784H409.026L403.17 142H398.178L395.01 132.624L391.81 142ZM415.253 133.392C415.253 134.8 415.647 135.952 416.437 136.848C417.247 137.723 418.271 138.16 419.509 138.16C420.767 138.16 421.791 137.723 422.581 136.848C423.391 135.952 423.797 134.8 423.797 133.392C423.797 131.984 423.391 130.832 422.581 129.936C421.791 129.04 420.767 128.592 419.509 128.592C418.271 128.592 417.247 129.04 416.437 129.936C415.647 130.832 415.253 131.984 415.253 133.392ZM428.629 133.392C428.629 135.888 427.765 137.989 426.037 139.696C424.309 141.403 422.133 142.256 419.509 142.256C416.906 142.256 414.741 141.403 413.013 139.696C411.285 137.989 410.421 135.888 410.421 133.392C410.421 130.896 411.285 128.795 413.013 127.088C414.741 125.36 416.906 124.496 419.509 124.496C422.133 124.496 424.309 125.36 426.037 127.088C427.765 128.795 428.629 130.896 428.629 133.392ZM441.25 129.008C439.821 129.008 438.754 129.52 438.05 130.544C437.346 131.547 436.994 132.88 436.994 134.544V142H432.194V124.784H436.994V127.056C437.613 126.352 438.381 125.755 439.298 125.264C440.237 124.773 441.186 124.517 442.146 124.496L442.178 129.008H441.25ZM450.15 142H445.35V118.256H450.15V130.448L455.494 124.752H461.542L454.982 131.728L461.798 142H456.102L451.718 135.408L450.15 137.04V142ZM137.058 180.08C135.266 181.531 133.186 182.256 130.818 182.256C128.471 182.256 126.541 181.659 125.026 180.464C123.511 179.248 122.754 177.595 122.754 175.504C122.754 173.157 124.322 171.077 127.458 169.264C126.754 168.411 126.242 167.664 125.922 167.024C125.602 166.363 125.442 165.595 125.442 164.72C125.442 162.907 126.093 161.52 127.394 160.56C128.717 159.6 130.274 159.12 132.066 159.12C133.858 159.12 135.383 159.589 136.642 160.528C137.922 161.445 138.562 162.736 138.562 164.4C138.562 166.491 137.037 168.432 133.986 170.224C135.181 171.717 136.077 172.795 136.674 173.456C137.207 172.475 137.613 171.44 137.89 170.352L141.634 173.04C141.143 174.384 140.546 175.632 139.842 176.784L143.01 179.92L139.842 182.928L137.058 180.08ZM127.522 175.664C127.522 176.411 127.831 177.029 128.45 177.52C129.069 178.011 129.869 178.256 130.85 178.256C131.831 178.256 132.887 177.787 134.018 176.848C132.461 175.205 131.117 173.712 129.986 172.368C128.343 173.392 127.522 174.491 127.522 175.664ZM132.066 162.896C131.597 162.896 131.17 163.067 130.786 163.408C130.423 163.728 130.242 164.176 130.242 164.752C130.242 165.307 130.669 166.117 131.522 167.184C133.122 166.331 133.922 165.531 133.922 164.784C133.922 164.165 133.73 163.696 133.346 163.376C132.962 163.056 132.535 162.896 132.066 162.896ZM169.278 179.504C167.336 181.339 165.054 182.256 162.43 182.256C159.827 182.256 157.672 181.456 155.966 179.856C154.259 178.235 153.406 176.069 153.406 173.36C153.406 170.651 154.27 168.496 155.998 166.896C157.747 165.296 159.806 164.496 162.174 164.496C164.542 164.496 166.547 165.211 168.19 166.64C169.854 168.069 170.686 170.032 170.686 172.528V175.088H158.142C158.291 176.027 158.782 176.795 159.614 177.392C160.446 177.989 161.384 178.288 162.43 178.288C164.115 178.288 165.502 177.723 166.59 176.592L169.278 179.504ZM165.822 171.664C165.715 170.64 165.331 169.851 164.67 169.296C164.008 168.741 163.198 168.464 162.238 168.464C161.299 168.464 160.435 168.752 159.646 169.328C158.856 169.904 158.398 170.683 158.27 171.664H165.822ZM177.87 164.784L180.814 169.392L183.854 164.784H189.486L183.566 173.2L189.71 182H183.982L180.622 177.264L177.358 182H171.822L177.838 173.232L172.142 164.784H177.87ZM202.413 164.496C204.418 164.496 206.2 165.339 207.757 167.024C209.336 168.688 210.125 170.789 210.125 173.328C210.125 175.867 209.336 177.989 207.757 179.696C206.2 181.403 204.365 182.256 202.253 182.256C200.162 182.256 198.477 181.413 197.197 179.728V188.208H192.397V164.784H197.197V166.704C198.669 165.232 200.408 164.496 202.413 164.496ZM197.133 173.424C197.133 174.811 197.517 175.952 198.285 176.848C199.074 177.723 200.024 178.16 201.133 178.16C202.242 178.16 203.213 177.723 204.045 176.848C204.877 175.952 205.293 174.811 205.293 173.424C205.293 172.037 204.888 170.875 204.077 169.936C203.266 168.997 202.296 168.528 201.165 168.528C200.034 168.528 199.074 168.997 198.285 169.936C197.517 170.853 197.133 172.016 197.133 173.424ZM222.766 169.008C221.336 169.008 220.27 169.52 219.566 170.544C218.862 171.547 218.51 172.88 218.51 174.544V182H213.71V164.784H218.51V167.056C219.128 166.352 219.896 165.755 220.814 165.264C221.752 164.773 222.702 164.517 223.662 164.496L223.694 169.008H222.766ZM241.778 179.504C239.836 181.339 237.554 182.256 234.93 182.256C232.327 182.256 230.172 181.456 228.466 179.856C226.759 178.235 225.906 176.069 225.906 173.36C225.906 170.651 226.77 168.496 228.498 166.896C230.247 165.296 232.306 164.496 234.674 164.496C237.042 164.496 239.047 165.211 240.69 166.64C242.354 168.069 243.186 170.032 243.186 172.528V175.088H230.642C230.791 176.027 231.282 176.795 232.114 177.392C232.946 177.989 233.884 178.288 234.93 178.288C236.615 178.288 238.002 177.723 239.09 176.592L241.778 179.504ZM238.322 171.664C238.215 170.64 237.831 169.851 237.17 169.296C236.508 168.741 235.698 168.464 234.738 168.464C233.799 168.464 232.935 168.752 232.146 169.328C231.356 169.904 230.898 170.683 230.77 171.664H238.322ZM259.607 176.656C259.607 178.341 258.978 179.696 257.719 180.72C256.482 181.744 254.903 182.256 252.983 182.256C251.703 182.256 250.37 182.032 248.983 181.584C247.596 181.115 246.348 180.432 245.239 179.536L247.351 176.528C249.143 177.915 251.052 178.608 253.079 178.608C253.698 178.608 254.188 178.491 254.551 178.256C254.914 178 255.095 177.669 255.095 177.264C255.095 176.859 254.839 176.485 254.327 176.144C253.836 175.803 253.111 175.483 252.151 175.184C251.212 174.885 250.487 174.629 249.975 174.416C249.484 174.203 248.919 173.893 248.279 173.488C246.978 172.677 246.327 171.483 246.327 169.904C246.327 168.304 246.967 167.003 248.247 166C249.527 164.997 251.18 164.496 253.207 164.496C255.234 164.496 257.26 165.179 259.287 166.544L257.495 169.744C256.002 168.72 254.508 168.208 253.015 168.208C251.543 168.208 250.807 168.613 250.807 169.424C250.807 169.872 251.042 170.224 251.511 170.48C251.98 170.736 252.759 171.035 253.847 171.376C254.935 171.717 255.703 171.984 256.151 172.176C256.62 172.347 257.175 172.624 257.815 173.008C259.01 173.733 259.607 174.949 259.607 176.656ZM276.232 176.656C276.232 178.341 275.603 179.696 274.344 180.72C273.107 181.744 271.528 182.256 269.608 182.256C268.328 182.256 266.995 182.032 265.608 181.584C264.221 181.115 262.973 180.432 261.864 179.536L263.976 176.528C265.768 177.915 267.677 178.608 269.704 178.608C270.323 178.608 270.813 178.491 271.176 178.256C271.539 178 271.72 177.669 271.72 177.264C271.72 176.859 271.464 176.485 270.952 176.144C270.461 175.803 269.736 175.483 268.776 175.184C267.837 174.885 267.112 174.629 266.6 174.416C266.109 174.203 265.544 173.893 264.904 173.488C263.603 172.677 262.952 171.483 262.952 169.904C262.952 168.304 263.592 167.003 264.872 166C266.152 164.997 267.805 164.496 269.832 164.496C271.859 164.496 273.885 165.179 275.912 166.544L274.12 169.744C272.627 168.72 271.133 168.208 269.64 168.208C268.168 168.208 267.432 168.613 267.432 169.424C267.432 169.872 267.667 170.224 268.136 170.48C268.605 170.736 269.384 171.035 270.472 171.376C271.56 171.717 272.328 171.984 272.776 172.176C273.245 172.347 273.8 172.624 274.44 173.008C275.635 173.733 276.232 174.949 276.232 176.656ZM291.311 188.784C289.625 188.784 288.036 188.101 286.543 186.736L288.719 183.184C289.529 183.973 290.361 184.368 291.215 184.368C291.663 184.368 292.047 184.144 292.367 183.696C292.687 183.269 292.847 182.811 292.847 182.32C292.847 181.829 290.628 175.984 286.191 164.784H291.311L295.503 175.504L299.695 164.784H304.815L296.815 185.072C296.345 186.245 295.609 187.152 294.607 187.792C293.625 188.453 292.527 188.784 291.311 188.784ZM310.643 173.392C310.643 174.8 311.038 175.952 311.827 176.848C312.638 177.723 313.662 178.16 314.899 178.16C316.158 178.16 317.182 177.723 317.971 176.848C318.782 175.952 319.187 174.8 319.187 173.392C319.187 171.984 318.782 170.832 317.971 169.936C317.182 169.04 316.158 168.592 314.899 168.592C313.662 168.592 312.638 169.04 311.827 169.936C311.038 170.832 310.643 171.984 310.643 173.392ZM324.019 173.392C324.019 175.888 323.155 177.989 321.427 179.696C319.699 181.403 317.523 182.256 314.899 182.256C312.297 182.256 310.131 181.403 308.403 179.696C306.675 177.989 305.811 175.888 305.811 173.392C305.811 170.896 306.675 168.795 308.403 167.088C310.131 165.36 312.297 164.496 314.899 164.496C317.523 164.496 319.699 165.36 321.427 167.088C323.155 168.795 324.019 170.896 324.019 173.392ZM338.689 174.064V164.784H343.521V182H338.689V179.728C337.494 181.413 335.947 182.256 334.049 182.256C332.171 182.256 330.593 181.669 329.312 180.496C328.033 179.301 327.393 177.541 327.393 175.216V164.784H332.225V174.16C332.225 176.805 333.195 178.128 335.137 178.128C336.097 178.128 336.929 177.787 337.633 177.104C338.337 176.4 338.689 175.387 338.689 174.064ZM357.109 169.008C355.68 169.008 354.613 169.52 353.909 170.544C353.205 171.547 352.853 172.88 352.853 174.544V182H348.053V164.784H352.853V167.056C353.472 166.352 354.24 165.755 355.157 165.264C356.096 164.773 357.045 164.517 358.005 164.496L358.037 169.008H357.109ZM374.045 176.656C374.045 178.341 373.415 179.696 372.157 180.72C370.919 181.744 369.341 182.256 367.421 182.256C366.141 182.256 364.807 182.032 363.421 181.584C362.034 181.115 360.786 180.432 359.677 179.536L361.789 176.528C363.581 177.915 365.49 178.608 367.517 178.608C368.135 178.608 368.626 178.491 368.989 178.256C369.351 178 369.533 177.669 369.533 177.264C369.533 176.859 369.277 176.485 368.765 176.144C368.274 175.803 367.549 175.483 366.589 175.184C365.65 174.885 364.925 174.629 364.413 174.416C363.922 174.203 363.357 173.893 362.717 173.488C361.415 172.677 360.765 171.483 360.765 169.904C360.765 168.304 361.405 167.003 362.685 166C363.965 164.997 365.618 164.496 367.645 164.496C369.671 164.496 371.698 165.179 373.725 166.544L371.933 169.744C370.439 168.72 368.946 168.208 367.453 168.208C365.981 168.208 365.245 168.613 365.245 169.424C365.245 169.872 365.479 170.224 365.949 170.48C366.418 170.736 367.197 171.035 368.285 171.376C369.373 171.717 370.141 171.984 370.589 172.176C371.058 172.347 371.613 172.624 372.253 173.008C373.447 173.733 374.045 174.949 374.045 176.656ZM392.622 179.504C390.68 181.339 388.398 182.256 385.774 182.256C383.171 182.256 381.016 181.456 379.31 179.856C377.603 178.235 376.75 176.069 376.75 173.36C376.75 170.651 377.614 168.496 379.342 166.896C381.091 165.296 383.15 164.496 385.518 164.496C387.886 164.496 389.891 165.211 391.534 166.64C393.198 168.069 394.03 170.032 394.03 172.528V175.088H381.486C381.635 176.027 382.126 176.795 382.958 177.392C383.79 177.989 384.728 178.288 385.774 178.288C387.459 178.288 388.846 177.723 389.934 176.592L392.622 179.504ZM389.166 171.664C389.059 170.64 388.675 169.851 388.014 169.296C387.352 168.741 386.542 168.464 385.582 168.464C384.643 168.464 383.779 168.752 382.99 169.328C382.2 169.904 381.742 170.683 381.614 171.664H389.166ZM402.291 182H397.491V158.256H402.291V182ZM412.562 163.792V164.944H416.723V168.4H412.562V182H407.731V168.4H405.715V164.944H407.731V163.888C407.731 162.011 408.296 160.528 409.427 159.44C410.579 158.331 411.997 157.776 413.683 157.776C415.389 157.776 416.936 158.416 418.323 159.696L416.595 162.928C415.891 162.117 415.112 161.712 414.259 161.712C413.768 161.712 413.363 161.893 413.043 162.256C412.723 162.597 412.562 163.109 412.562 163.792ZM419.123 181.456C418.59 180.901 418.323 180.229 418.323 179.44C418.323 178.651 418.59 177.989 419.123 177.456C419.678 176.901 420.35 176.624 421.139 176.624C421.929 176.624 422.59 176.901 423.123 177.456C423.678 177.989 423.955 178.651 423.955 179.44C423.955 180.229 423.678 180.901 423.123 181.456C422.59 181.989 421.929 182.256 421.139 182.256C420.35 182.256 419.678 181.989 419.123 181.456Z" fill="white"/>
<path d="M384 229H457.5V311L384 229Z" fill="#00C2FF"/>
</g>
<defs>
<filter id="filter0_d_2_1705" x="0" y="0" width="547" height="346" filterUnits="userSpaceOnUse" color-interpolation-filters="sRGB">
<feFlood flood-opacity="0" result="BackgroundImageFix"/>
<feColorMatrix in="SourceAlpha" type="matrix" values="0 0 0 0 0 0 0 0 0 0 0 0 0 0 0 0 0 0 127 0" result="hardAlpha"/>
<feOffset dy="5"/>
<feGaussianBlur stdDeviation="15"/>
<feComposite in2="hardAlpha" operator="out"/>
<feColorMatrix type="matrix" values="0 0 0 0 0 0 0 0 0 0 0 0 0 0 0 0 0 0 0.05 0"/>
<feBlend mode="normal" in2="BackgroundImageFix" result="effect1_dropShadow_2_1705"/>
<feBlend mode="normal" in="SourceGraphic" in2="effect1_dropShadow_2_1705" result="shape"/>
</filter>
</defs>
</svg>
