<svg width="18" height="18" viewBox="0 0 18 18" fill="none" xmlns="http://www.w3.org/2000/svg">
<path d="M9 1.00012C7.41775 1.00012 5.87103 1.46931 4.55544 2.34836C3.23985 3.22742 2.21447 4.47685 1.60897 5.93865C1.00347 7.40046 0.84504 9.009 1.15372 10.5608C1.4624 12.1127 2.22433 13.5382 3.34315 14.657C4.46197 15.7758 5.88743 16.5377 7.43928 16.8464C8.99113 17.1551 10.5997 16.9967 12.0615 16.3912C13.5233 15.7857 14.7727 14.7603 15.6518 13.4447C16.5308 12.1291 17 10.5824 17 9.00012C17 6.87839 16.1571 4.84356 14.6569 3.34327C13.1566 1.84298 11.1217 1.00012 9 1.00012Z" stroke="black" stroke-width="2" stroke-miterlimit="10"/>
<path d="M6.4541 6.55857C6.4541 6.55857 6.49228 5.76312 7.34365 5.07812C7.84865 4.6713 8.4541 4.55357 8.99956 4.54539C9.49637 4.53903 9.94001 4.6213 10.2055 4.74766C10.66 4.96402 11.545 5.49221 11.545 6.61539C11.545 7.79721 10.7723 8.33402 9.89183 8.92448C9.01137 9.51493 8.77228 10.1558 8.77228 10.8181" stroke="black" stroke-width="2" stroke-miterlimit="10" stroke-linecap="round"/>
<path d="M8.72745 14.0913C9.22953 14.0913 9.63654 13.6842 9.63654 13.1822C9.63654 12.6801 9.22953 12.2731 8.72745 12.2731C8.22537 12.2731 7.81836 12.6801 7.81836 13.1822C7.81836 13.6842 8.22537 14.0913 8.72745 14.0913Z" fill="black"/>
</svg>
