<svg width="29" height="22" viewBox="0 0 29 22" fill="none" xmlns="http://www.w3.org/2000/svg">
<path d="M28 1V21" stroke="#ABABAB" stroke-opacity="0.5" stroke-linecap="round" stroke-linejoin="round"/>
<path fill-rule="evenodd" clip-rule="evenodd" d="M0 11.7114C0 15.6887 2.88867 18.9961 6.66667 19.6667V13.8887H4.66667V11.6667H6.66667V9.88875C6.66667 7.88875 7.95533 6.77808 9.778 6.77808C10.3553 6.77808 10.978 6.86675 11.5553 6.95541V9.00008H10.5333C9.55533 9.00008 9.33333 9.48875 9.33333 10.1114V11.6667H11.4667L11.1113 13.8887H9.33333V19.6667C13.1113 18.9961 16 15.6894 16 11.7114C16 7.28675 12.4 3.66675 8 3.66675C3.6 3.66675 0 7.28675 0 11.7114Z" fill="#555555"/>
</svg>
