<svg width="18" height="18" viewBox="0 0 18 18" fill="none" xmlns="http://www.w3.org/2000/svg">
<path d="M9 1.00009C7.41775 1.00009 5.87103 1.46928 4.55544 2.34833C3.23985 3.22739 2.21447 4.47682 1.60897 5.93862C1.00347 7.40043 0.84504 9.00897 1.15372 10.5608C1.4624 12.1127 2.22433 13.5381 3.34315 14.6569C4.46197 15.7758 5.88743 16.5377 7.43928 16.8464C8.99113 17.1551 10.5997 16.9966 12.0615 16.3911C13.5233 15.7856 14.7727 14.7602 15.6518 13.4447C16.5308 12.1291 17 10.5823 17 9.00009C17 6.87836 16.1571 4.84353 14.6569 3.34324C13.1566 1.84295 11.1217 1.00009 9 1.00009Z" stroke="black" stroke-width="2" stroke-miterlimit="10"/>
<path d="M6.4541 6.55854C6.4541 6.55854 6.49228 5.76309 7.34365 5.07809C7.84865 4.67127 8.4541 4.55354 8.99956 4.54536C9.49637 4.53899 9.94001 4.62127 10.2055 4.74763C10.66 4.96399 11.545 5.49218 11.545 6.61536C11.545 7.79718 10.7723 8.33399 9.89183 8.92445C9.01137 9.5149 8.77228 10.1558 8.77228 10.8181" stroke="black" stroke-width="2" stroke-miterlimit="10" stroke-linecap="round"/>
<path d="M8.72745 14.0912C9.22953 14.0912 9.63654 13.6842 9.63654 13.1821C9.63654 12.6801 9.22953 12.273 8.72745 12.273C8.22537 12.273 7.81836 12.6801 7.81836 13.1821C7.81836 13.6842 8.22537 14.0912 8.72745 14.0912Z" fill="black"/>
</svg>
