<svg width="95" height="95" viewBox="0 0 95 95" fill="none" xmlns="http://www.w3.org/2000/svg">
<path d="M40.4292 59.1894C39.7883 59.1906 39.1535 59.065 38.5613 58.8199C37.9692 58.5748 37.4314 58.215 36.9788 57.7613C32.6959 53.4666 30.2909 47.6488 30.2909 41.5836C30.2909 35.5183 32.6959 29.7006 36.9788 25.4059L54.9807 7.40399C59.3011 3.08354 65.0497 0.701294 71.1584 0.701294C77.267 0.701294 83.0156 3.08354 87.3361 7.40399C91.6189 11.6987 94.024 17.5164 94.024 23.5817C94.024 29.6469 91.6189 35.4647 87.3361 39.7594L79.1092 47.9862C78.1842 48.8465 76.9615 49.3144 75.6984 49.2915C74.4354 49.2686 73.2305 48.7567 72.3372 47.8635C71.444 46.9702 70.9321 45.7653 70.9092 44.5023C70.8863 43.2392 71.3542 42.0166 72.2145 41.0915L80.4413 32.8647C82.2713 31.0263 83.5163 28.6874 84.0195 26.1427C84.5226 23.5981 84.2614 20.9614 83.2688 18.5649C82.2762 16.1684 80.5966 14.1193 78.4415 12.6756C76.2864 11.2319 73.7523 10.4584 71.1584 10.4523C67.654 10.4523 64.3536 11.8205 61.8754 14.2987L43.8735 32.3006C41.4148 34.7643 40.0339 38.1029 40.0339 41.5836C40.0339 45.0643 41.4148 48.4028 43.8735 50.8665C44.554 51.5491 45.0171 52.418 45.2043 53.3635C45.3914 54.309 45.2943 55.2888 44.9252 56.1792C44.5561 57.0695 43.9315 57.8306 43.1303 58.3664C42.329 58.9021 41.387 59.1885 40.4231 59.1894H40.4292Z" fill="#00C2FF"/>
<path d="M23.1536 94.4674C20.1479 94.475 17.1705 93.8865 14.3936 92.736C11.6168 91.5855 9.0956 89.8958 6.97595 87.7647C2.69311 83.47 0.288025 77.6522 0.288025 71.587C0.288025 65.5218 2.69311 59.704 6.97595 55.4093L15.2028 47.1824C16.1278 46.3222 17.3505 45.8542 18.6136 45.8771C19.8766 45.9 21.0815 46.412 21.9748 47.3052C22.868 48.1985 23.3799 49.4034 23.4028 50.6664C23.4257 51.9295 22.9578 53.1521 22.0975 54.0772L13.8707 62.304C12.0407 64.1424 10.7957 66.4813 10.2926 69.0259C9.78939 71.5706 10.0506 74.2073 11.0432 76.6038C12.0358 79.0003 13.7154 81.0494 15.8705 82.4931C18.0256 83.9367 20.5597 84.7103 23.1536 84.7164C26.664 84.7164 29.9584 83.3482 32.4366 80.87L50.4385 62.8681C52.8972 60.4044 54.2781 57.0658 54.2781 53.5851C54.2781 50.1044 52.8972 46.7659 50.4385 44.3021C49.5782 43.3771 49.1103 42.1544 49.1332 40.8914C49.1561 39.6284 49.668 38.4235 50.5613 37.5302C51.4545 36.637 52.6594 36.125 53.9225 36.1021C55.1855 36.0792 56.4082 36.5471 57.3332 37.4074C61.6161 41.7021 64.0211 47.5199 64.0211 53.5851C64.0211 59.6504 61.6161 65.4681 57.3332 69.7628L39.3313 87.7647C37.2117 89.8958 34.6905 91.5855 31.9137 92.736C29.1368 93.8865 26.1594 94.475 23.1536 94.4674Z" fill="#999999"/>
</svg>
