<svg width="24" height="24" viewBox="0 0 24 24" fill="none" xmlns="http://www.w3.org/2000/svg">
<path d="M12.0001 3.96154V6.92308H15.2084C15.843 6.92308 16.4633 6.74939 16.9909 6.42397C17.5185 6.09855 17.9297 5.63602 18.1725 5.09487C18.4154 4.55372 18.4789 3.95825 18.3551 3.38377C18.2313 2.80929 17.9258 2.28159 17.4771 1.86742C17.0284 1.45324 16.4567 1.17118 15.8343 1.05691C15.212 0.942635 14.5669 1.00128 13.9806 1.22543C13.3944 1.44959 12.8933 1.82917 12.5408 2.3162C12.1883 2.80322 12.0001 3.3758 12.0001 3.96154V3.96154Z" stroke="black" stroke-width="2" stroke-miterlimit="10" stroke-linecap="round"/>
<path d="M12.0002 3.96154V6.92308H8.79188C8.15733 6.92308 7.53703 6.74939 7.00942 6.42397C6.48181 6.09855 6.07059 5.63602 5.82776 5.09487C5.58493 4.55372 5.5214 3.95825 5.64519 3.38377C5.76898 2.80929 6.07455 2.28159 6.52324 1.86742C6.97194 1.45324 7.54361 1.17118 8.16596 1.05691C8.78832 0.942635 9.43341 1.00128 10.0197 1.22543C10.6059 1.44959 11.107 1.82917 11.4595 2.3162C11.812 2.80322 12.0002 3.3758 12.0002 3.96154V3.96154Z" stroke="black" stroke-width="2" stroke-miterlimit="10" stroke-linecap="round"/>
<path d="M21.1667 6.92303H2.83333C1.82081 6.92303 1 7.68071 1 8.61534V11.1538C1 12.0884 1.82081 12.8461 2.83333 12.8461H21.1667C22.1792 12.8461 23 12.0884 23 11.1538V8.61534C23 7.68071 22.1792 6.92303 21.1667 6.92303Z" stroke="black" stroke-width="2" stroke-linecap="round" stroke-linejoin="round"/>
<path d="M21.1668 12.8462V20.4616C21.1668 21.1348 20.8771 21.7805 20.3614 22.2566C19.8456 22.7326 19.1462 23.0001 18.4168 23.0001H5.58348C4.85414 23.0001 4.15466 22.7326 3.63894 22.2566C3.12321 21.7805 2.83348 21.1348 2.83348 20.4616V12.8462" stroke="black" stroke-width="2" stroke-linecap="round" stroke-linejoin="round"/>
<path d="M12.0001 6.92303V23" stroke="black" stroke-width="2" stroke-linecap="round" stroke-linejoin="round"/>
</svg>
