<svg width="32" height="32" viewBox="0 0 32 32" fill="none" xmlns="http://www.w3.org/2000/svg">
<rect width="32" height="32" rx="8" fill="white" fill-opacity="0.01"/>
<path fill-rule="evenodd" clip-rule="evenodd" d="M6 23.4C6 22.5163 6.71634 21.8 7.6 21.8H24.4C25.2837 21.8 26 22.5163 26 23.4V23.4C26 24.2837 25.2837 25 24.4 25H7.6C6.71635 25 6 24.2837 6 23.4V23.4ZM6 10.6C6 9.71634 6.71634 9 7.6 9H24.4C25.2837 9 26 9.71634 26 10.6V10.6C26 11.4837 25.2837 12.2 24.4 12.2H7.6C6.71635 12.2 6 11.4837 6 10.6V10.6ZM6 17C6 16.1163 6.71634 15.4 7.6 15.4H24.4C25.2837 15.4 26 16.1163 26 17V17C26 17.8837 25.2837 18.6 24.4 18.6H7.6C6.71635 18.6 6 17.8837 6 17V17Z" fill="#091E42"/>
</svg>
