<svg width="32" height="32" viewBox="0 0 32 32" fill="none" xmlns="http://www.w3.org/2000/svg">
<rect width="32" height="32" rx="8" fill="white" fill-opacity="0.01"/>
<path fill-rule="evenodd" clip-rule="evenodd" d="M8 21.6C8 20.8268 8.6268 20.2 9.4 20.2H23.6C24.3732 20.2 25 20.8268 25 21.6V21.6C25 22.3732 24.3732 23 23.6 23H9.4C8.6268 23 8 22.3732 8 21.6V21.6ZM8 10.4C8 9.6268 8.6268 9 9.4 9H23.6C24.3732 9 25 9.6268 25 10.4V10.4C25 11.1732 24.3732 11.8 23.6 11.8H9.4C8.6268 11.8 8 11.1732 8 10.4V10.4ZM8 16C8 15.2268 8.6268 14.6 9.4 14.6H23.6C24.3732 14.6 25 15.2268 25 16V16C25 16.7732 24.3732 17.4 23.6 17.4H9.4C8.6268 17.4 8 16.7732 8 16V16Z" fill="#091E42"/>
</svg>
