<svg width="17" height="18" viewBox="0 0 17 18" fill="none" xmlns="http://www.w3.org/2000/svg">
<path fill-rule="evenodd" clip-rule="evenodd" d="M15.5901 5.44962L15.072 4.55057C14.6336 3.78984 13.6623 3.5274 12.9005 3.9639V3.9639C12.5379 4.17751 12.1052 4.23812 11.6979 4.13235C11.2905 4.02658 10.942 3.76313 10.7291 3.40009C10.5921 3.16934 10.5186 2.90651 10.5158 2.63819V2.63819C10.5281 2.208 10.3658 1.79112 10.0658 1.48253C9.76586 1.17394 9.35375 0.999914 8.92338 1.00009H7.87957C7.45795 1.00009 7.0537 1.1681 6.75628 1.46695C6.45886 1.7658 6.29279 2.17085 6.29481 2.59247V2.59247C6.28232 3.46298 5.57303 4.16209 4.70243 4.162C4.43411 4.15921 4.17128 4.08562 3.94053 3.94866V3.94866C3.17876 3.51217 2.20741 3.7746 1.7691 4.53533L1.21291 5.44962C0.775129 6.2094 1.03399 7.18013 1.79196 7.62104V7.62104C2.28465 7.90549 2.58816 8.43118 2.58816 9.00009C2.58816 9.569 2.28465 10.0947 1.79196 10.3791V10.3791C1.03495 10.8171 0.775809 11.7855 1.21291 12.5429V12.5429L1.73862 13.4496C1.94399 13.8202 2.28856 14.0936 2.69608 14.2094C3.10361 14.3253 3.54049 14.2739 3.91005 14.0668V14.0668C4.27335 13.8548 4.70628 13.7967 5.11261 13.9054C5.51893 14.0142 5.86499 14.2807 6.07386 14.6458C6.21082 14.8766 6.28441 15.1394 6.28719 15.4077V15.4077C6.28719 16.2872 7.00013 17.0001 7.87957 17.0001H8.92338C9.79987 17.0001 10.5116 16.2918 10.5158 15.4153V15.4153C10.5137 14.9924 10.6808 14.5862 10.9799 14.2871C11.279 13.988 11.6852 13.8209 12.1081 13.8229C12.3758 13.8301 12.6376 13.9034 12.8701 14.0363V14.0363C13.6298 14.4741 14.6006 14.2152 15.0415 13.4572V13.4572L15.5901 12.5429C15.8024 12.1785 15.8607 11.7444 15.752 11.3368C15.6433 10.9293 15.3766 10.5819 15.011 10.3715V10.3715C14.6454 10.1612 14.3787 9.81376 14.27 9.40619C14.1613 8.99863 14.2196 8.56456 14.432 8.20009C14.57 7.95901 14.7699 7.75913 15.011 7.62104V7.62104C15.7644 7.18037 16.0227 6.21531 15.5901 5.45723V5.45723V5.44962Z" stroke="#200E32" stroke-width="2" stroke-linecap="round" stroke-linejoin="round"/>
</svg>
