<svg width="16" height="8" viewBox="0 0 16 8" fill="none" xmlns="http://www.w3.org/2000/svg">
<path fill-rule="evenodd" clip-rule="evenodd" d="M1.00001 4.34732C0.998887 4.0524 1.06484 3.76109 1.1929 3.49542C1.59473 2.69175 2.72792 2.2658 3.66822 2.07292C4.34636 1.9282 5.03387 1.83152 5.72563 1.7836C7.00637 1.67109 8.2945 1.67109 9.57524 1.7836C10.2669 1.83207 10.9544 1.92875 11.6326 2.07292C12.5729 2.2658 13.7061 2.65157 14.108 3.49542C14.3655 4.03698 14.3655 4.6657 14.108 5.20725C13.7061 6.05111 12.5729 6.43688 11.6326 6.62172C10.9553 6.77243 10.2675 6.87184 9.57524 6.91908C8.53282 7.00745 7.48554 7.02357 6.4409 6.96731C6.1998 6.96731 5.96673 6.96731 5.72563 6.91908C5.03592 6.87242 4.35079 6.77301 3.67626 6.62172C2.72792 6.43688 1.60277 6.05111 1.1929 5.20725C1.0655 4.93851 0.999607 4.64474 1.00001 4.34732Z" stroke="#200E32" stroke-width="2" stroke-linecap="round" stroke-linejoin="round"/>
</svg>
