<svg width="17" height="18" viewBox="0 0 17 18" fill="none" xmlns="http://www.w3.org/2000/svg">
<path fill-rule="evenodd" clip-rule="evenodd" d="M15.5901 5.44952L15.072 4.55048C14.6336 3.78975 13.6623 3.52731 12.9005 3.96381V3.96381C12.5379 4.17742 12.1052 4.23803 11.6979 4.13226C11.2905 4.02649 10.942 3.76304 10.7291 3.4C10.5921 3.16925 10.5186 2.90642 10.5158 2.6381V2.6381C10.5281 2.20791 10.3658 1.79103 10.0658 1.48244C9.76586 1.17385 9.35375 0.999823 8.92338 1H7.87957C7.45795 0.999995 7.0537 1.16801 6.75628 1.46686C6.45886 1.76571 6.29279 2.17076 6.29481 2.59238V2.59238C6.28232 3.46289 5.57303 4.16199 4.70243 4.1619C4.43411 4.15912 4.17128 4.08553 3.94053 3.94857V3.94857C3.17876 3.51207 2.20741 3.77451 1.7691 4.53524L1.21291 5.44952C0.775129 6.2093 1.03399 7.18004 1.79196 7.62095V7.62095C2.28465 7.9054 2.58816 8.43109 2.58816 9C2.58816 9.56891 2.28465 10.0946 1.79196 10.379V10.379C1.03495 10.817 0.775809 11.7854 1.21291 12.5429V12.5429L1.73862 13.4495C1.94399 13.8201 2.28856 14.0935 2.69608 14.2094C3.10361 14.3252 3.54049 14.2738 3.91005 14.0667V14.0667C4.27335 13.8547 4.70628 13.7966 5.11261 13.9053C5.51893 14.0141 5.86499 14.2806 6.07386 14.6457C6.21082 14.8765 6.28441 15.1393 6.28719 15.4076V15.4076C6.28719 16.2871 7.00013 17 7.87957 17H8.92338C9.79987 17 10.5116 16.2917 10.5158 15.4152V15.4152C10.5137 14.9923 10.6808 14.5861 10.9799 14.287C11.279 13.9879 11.6852 13.8208 12.1081 13.8229C12.3758 13.83 12.6376 13.9033 12.8701 14.0362V14.0362C13.6298 14.474 14.6006 14.2151 15.0415 13.4571V13.4571L15.5901 12.5429C15.8024 12.1784 15.8607 11.7443 15.752 11.3368C15.6433 10.9292 15.3766 10.5818 15.011 10.3714V10.3714C14.6454 10.1611 14.3787 9.81367 14.27 9.4061C14.1613 8.99854 14.2196 8.56446 14.432 8.2C14.57 7.95892 14.7699 7.75903 15.011 7.62095V7.62095C15.7644 7.18028 16.0227 6.21521 15.5901 5.45714V5.45714V5.44952Z" stroke="#200E32" stroke-width="2" stroke-linecap="round" stroke-linejoin="round"/>
</svg>
