<svg width="17" height="18" viewBox="0 0 17 18" fill="none" xmlns="http://www.w3.org/2000/svg">
<path fill-rule="evenodd" clip-rule="evenodd" d="M15.5901 5.44965L15.072 4.5506C14.6336 3.78987 13.6623 3.52743 12.9005 3.96393V3.96393C12.5379 4.17754 12.1052 4.23815 11.6979 4.13238C11.2905 4.02661 10.942 3.76316 10.7291 3.40012C10.5921 3.16937 10.5186 2.90654 10.5158 2.63822V2.63822C10.5281 2.20803 10.3658 1.79116 10.0658 1.48256C9.76586 1.17397 9.35375 0.999945 8.92338 1.00012H7.87957C7.45795 1.00012 7.0537 1.16813 6.75628 1.46698C6.45886 1.76583 6.29279 2.17088 6.29481 2.5925V2.5925C6.28232 3.46301 5.57303 4.16212 4.70243 4.16203C4.43411 4.15924 4.17128 4.08565 3.94053 3.94869V3.94869C3.17876 3.5122 2.20741 3.77463 1.7691 4.53536L1.21291 5.44965C0.775129 6.20943 1.03399 7.18016 1.79196 7.62107V7.62107C2.28465 7.90552 2.58816 8.43122 2.58816 9.00012C2.58816 9.56903 2.28465 10.0947 1.79196 10.3792V10.3792C1.03495 10.8171 0.775809 11.7855 1.21291 12.543V12.543L1.73862 13.4496C1.94399 13.8202 2.28856 14.0937 2.69608 14.2095C3.10361 14.3253 3.54049 14.274 3.91005 14.0668V14.0668C4.27335 13.8548 4.70628 13.7967 5.11261 13.9055C5.51893 14.0142 5.86499 14.2807 6.07386 14.6458C6.21082 14.8766 6.28441 15.1394 6.28719 15.4077V15.4077C6.28719 16.2872 7.00013 17.0001 7.87957 17.0001H8.92338C9.79987 17.0001 10.5116 16.2918 10.5158 15.4154V15.4154C10.5137 14.9924 10.6808 14.5862 10.9799 14.2871C11.279 13.9881 11.6852 13.8209 12.1081 13.823C12.3758 13.8301 12.6376 13.9034 12.8701 14.0363V14.0363C13.6298 14.4741 14.6006 14.2152 15.0415 13.4573V13.4573L15.5901 12.543C15.8024 12.1785 15.8607 11.7444 15.752 11.3369C15.6433 10.9293 15.3766 10.5819 15.011 10.3716V10.3716C14.6454 10.1612 14.3787 9.81379 14.27 9.40623C14.1613 8.99866 14.2196 8.56459 14.432 8.20012C14.57 7.95904 14.7699 7.75916 15.011 7.62107V7.62107C15.7644 7.1804 16.0227 6.21534 15.5901 5.45726V5.45726V5.44965Z" stroke="#200E32" stroke-width="2" stroke-linecap="round" stroke-linejoin="round"/>
</svg>
