<svg width="16" height="8" viewBox="0 0 16 8" fill="none" xmlns="http://www.w3.org/2000/svg">
<path fill-rule="evenodd" clip-rule="evenodd" d="M1.00001 4.3472C0.998887 4.05228 1.06484 3.76097 1.1929 3.4953C1.59473 2.69163 2.72792 2.26568 3.66822 2.0728C4.34636 1.92808 5.03387 1.8314 5.72563 1.78347C7.00637 1.67097 8.2945 1.67097 9.57524 1.78347C10.2669 1.83195 10.9544 1.92863 11.6326 2.0728C12.5729 2.26568 13.7061 2.65144 14.108 3.4953C14.3655 4.03686 14.3655 4.66558 14.108 5.20713C13.7061 6.05099 12.5729 6.43676 11.6326 6.6216C10.9553 6.77231 10.2675 6.87171 9.57524 6.91896C8.53282 7.00733 7.48554 7.02344 6.4409 6.96718C6.1998 6.96718 5.96673 6.96718 5.72563 6.91896C5.03592 6.8723 4.35079 6.77289 3.67626 6.6216C2.72792 6.43676 1.60277 6.05099 1.1929 5.20713C1.0655 4.93838 0.999607 4.64462 1.00001 4.3472Z" stroke="#200E32" stroke-width="2" stroke-linecap="round" stroke-linejoin="round"/>
</svg>
