<svg width="19" height="19" viewBox="0 0 19 19" fill="none" xmlns="http://www.w3.org/2000/svg">
<path fill-rule="evenodd" clip-rule="evenodd" d="M19 2.375C19 1.06332 17.9367 0 16.625 0H2.375C1.06332 0 0 1.06332 0 2.375V11.875C0 13.1867 1.06332 14.25 2.375 14.25H13.7581C14.0731 14.25 14.3751 14.3751 14.5978 14.5978L17.9864 17.9864C18.3604 18.3604 19 18.0955 19 17.5666V2.375ZM5.93744 7.12501C5.93744 7.78085 5.40578 8.31251 4.74994 8.31251C4.0941 8.31251 3.56244 7.78085 3.56244 7.12501C3.56244 6.46917 4.0941 5.93751 4.74994 5.93751C5.40578 5.93751 5.93744 6.46917 5.93744 7.12501ZM10.6874 7.12501C10.6874 7.78085 10.1558 8.31251 9.49994 8.31251C8.8441 8.31251 8.31244 7.78085 8.31244 7.12501C8.31244 6.46917 8.8441 5.93751 9.49994 5.93751C10.1558 5.93751 10.6874 6.46917 10.6874 7.12501ZM14.2499 8.31251C14.9058 8.31251 15.4374 7.78085 15.4374 7.12501C15.4374 6.46917 14.9058 5.93751 14.2499 5.93751C13.5941 5.93751 13.0624 6.46917 13.0624 7.12501C13.0624 7.78085 13.5941 8.31251 14.2499 8.31251Z" fill="white"/>
</svg>
