<svg width="24" height="24" viewBox="0 0 24 24" fill="none" xmlns="http://www.w3.org/2000/svg">
<path d="M17.7963 14.4C17.4963 14.4 17.2644 14.1377 17.2953 13.8393C17.358 13.2331 17.4 12.6235 17.4 12C17.4 11.3765 17.358 10.7669 17.2953 10.1607C17.2644 9.86229 17.4963 9.6 17.7963 9.6H20.8976C21.127 9.6 21.3282 9.7559 21.3763 9.98023C21.5161 10.632 21.6 11.3076 21.6 12C21.6 12.6924 21.5161 13.368 21.3763 14.0198C21.3282 14.2441 21.127 14.4 20.8976 14.4H17.7963ZM16.289 20.5753C15.8817 20.7795 15.4889 20.3383 15.676 19.9229C16.0731 19.0409 16.4025 18.1209 16.6641 17.1751C16.725 16.9549 16.9237 16.8 17.1521 16.8H19.4354C19.8209 16.8 20.0574 17.2159 19.8346 17.5305C18.9194 18.8225 17.7008 19.8677 16.289 20.5753ZM14.8642 13.9672C14.8338 14.2154 14.6216 14.4 14.3716 14.4H9.62195C9.37473 14.4 9.16383 14.2194 9.13227 13.9742C9.04851 13.3235 9 12.6698 9 12C9 11.3313 9.04835 10.6707 9.13185 10.0247C9.16348 9.77995 9.37417 9.6 9.62096 9.6H14.3725C14.6221 9.6 14.8341 9.78406 14.8647 10.0318C14.944 10.6755 15 11.3338 15 12C15 12.6674 14.9438 13.3188 14.8642 13.9672ZM12.3994 20.9496C12.2121 21.2446 11.7879 21.2446 11.6006 20.9496C10.9057 19.855 10.3246 18.6782 9.90541 17.4334C9.79934 17.1184 10.0391 16.8 10.3715 16.8H13.6285C13.9609 16.8 14.2007 17.1184 14.0946 17.4334C13.6754 18.6782 13.0943 19.855 12.3994 20.9496ZM7.3048 6.83552C7.24131 7.05057 7.04499 7.2 6.82077 7.2H4.55892C4.17471 7.2 3.938 6.78646 4.15849 6.47181C5.0685 5.17319 6.28805 4.12432 7.70347 3.41887C8.11047 3.21602 8.50225 3.65712 8.3159 4.07194C7.91753 4.95874 7.58571 5.88411 7.3048 6.83552ZM4.16336 17.5298C3.94128 17.2152 4.17782 16.8 4.56292 16.8H6.82077C7.04499 16.8 7.24131 16.9494 7.3048 17.1645C7.58498 18.1134 7.91581 19.0365 8.3128 19.9212C8.49938 20.337 8.10552 20.7785 7.69832 20.5739C6.28989 19.866 5.07484 18.821 4.16336 17.5298ZM3.10239 14.4C2.87295 14.4 2.67176 14.2441 2.62366 14.0198C2.48391 13.368 2.4 12.6924 2.4 12C2.4 11.3076 2.48391 10.632 2.62366 9.98023C2.67176 9.7559 2.87295 9.6 3.10239 9.6H6.20373C6.50374 9.6 6.73556 9.86229 6.70471 10.1607C6.64204 10.7669 6.6 11.3765 6.6 12C6.6 12.6235 6.64204 13.2331 6.70471 13.8393C6.73556 14.1377 6.50374 14.4 6.20373 14.4H3.10239ZM11.6008 3.03862C11.7879 2.74341 12.2121 2.74341 12.3992 3.03862C13.0942 4.13549 13.6755 5.31953 14.0947 6.56655C14.2007 6.88161 13.9609 7.2 13.6285 7.2H10.3715C10.0391 7.2 9.79934 6.88161 9.90525 6.56655C10.3245 5.31953 10.9058 4.13549 11.6008 3.03862ZM19.8368 6.47025C20.0589 6.78485 19.8223 7.2 19.4373 7.2H17.1534C16.9244 7.2 16.7254 7.04428 16.6647 6.82351C16.4055 5.88043 16.0731 4.95947 15.6708 4.06896C15.4837 3.65493 15.8745 3.21587 16.2812 3.41849C17.7056 4.12823 18.9251 5.17849 19.8368 6.47025ZM12 0C5.364 0 0 5.4 0 12C0 15.1826 1.26428 18.2348 3.51472 20.4853C4.62902 21.5996 5.95189 22.4835 7.4078 23.0866C8.86371 23.6896 10.4241 24 12 24C15.1826 24 18.2348 22.7357 20.4853 20.4853C22.7357 18.2348 24 15.1826 24 12C24 10.4241 23.6896 8.86371 23.0866 7.4078C22.4835 5.95189 21.5996 4.62902 20.4853 3.51472C19.371 2.40042 18.0481 1.5165 16.5922 0.913446C15.1363 0.310389 13.5759 0 12 0Z" fill="white"/>
</svg>
