<svg width="99" height="98" viewBox="0 0 99 98" fill="none" xmlns="http://www.w3.org/2000/svg">
<path d="M31.9628 88.8784H14.0861C12.9008 88.8784 11.7641 88.4138 10.926 87.5867C10.0878 86.7596 9.61697 85.6378 9.61697 84.4681V66.8266C9.61697 65.6569 9.14612 64.5351 8.30799 63.708C7.46986 62.8809 6.33311 62.4163 5.14781 62.4163C3.96252 62.4163 2.82577 62.8809 1.98764 63.708C1.14951 64.5351 0.67865 65.6569 0.67865 66.8266V84.4681C0.67865 87.9772 2.09122 91.3425 4.60561 93.8238C7.12 96.3051 10.5303 97.6991 14.0861 97.6991H31.9628C33.1481 97.6991 34.2848 97.2345 35.123 96.4074C35.9611 95.5803 36.4319 94.4585 36.4319 93.2888C36.4319 92.1191 35.9611 90.9973 35.123 90.1702C34.2848 89.3431 33.1481 88.8784 31.9628 88.8784ZM94.5311 62.4163C93.3458 62.4163 92.209 62.8809 91.3709 63.708C90.5327 64.5351 90.0619 65.6569 90.0619 66.8266V84.4681C90.0619 85.6378 89.591 86.7596 88.7529 87.5867C87.9148 88.4138 86.778 88.8784 85.5927 88.8784H67.7161C66.5308 88.8784 65.394 89.3431 64.5559 90.1702C63.7178 90.9973 63.2469 92.1191 63.2469 93.2888C63.2469 94.4585 63.7178 95.5803 64.5559 96.4074C65.394 97.2345 66.5308 97.6991 67.7161 97.6991H85.5927C89.1486 97.6991 92.5589 96.3051 95.0732 93.8238C97.5876 91.3425 99.0002 87.9772 99.0002 84.4681V66.8266C99.0002 65.6569 98.5294 64.5351 97.6912 63.708C96.8531 62.8809 95.7163 62.4163 94.5311 62.4163ZM85.5927 0.671265H67.7161C66.5308 0.671265 65.394 1.13593 64.5559 1.96303C63.7178 2.79013 63.2469 3.91192 63.2469 5.08162C63.2469 6.25132 63.7178 7.37311 64.5559 8.20022C65.394 9.02732 66.5308 9.49198 67.7161 9.49198H85.5927C86.778 9.49198 87.9148 9.95664 88.7529 10.7837C89.591 11.6108 90.0619 12.7326 90.0619 13.9023V31.5438C90.0619 32.7135 90.5327 33.8353 91.3709 34.6624C92.209 35.4895 93.3458 35.9541 94.5311 35.9541C95.7163 35.9541 96.8531 35.4895 97.6912 34.6624C98.5294 33.8353 99.0002 32.7135 99.0002 31.5438V13.9023C99.0002 10.3932 97.5876 7.02786 95.0732 4.54656C92.5589 2.06525 89.1486 0.671265 85.5927 0.671265ZM5.14781 35.9541C6.33311 35.9541 7.46986 35.4895 8.30799 34.6624C9.14612 33.8353 9.61697 32.7135 9.61697 31.5438V13.9023C9.61697 12.7326 10.0878 11.6108 10.926 10.7837C11.7641 9.95664 12.9008 9.49198 14.0861 9.49198H31.9628C33.1481 9.49198 34.2848 9.02732 35.123 8.20022C35.9611 7.37311 36.4319 6.25132 36.4319 5.08162C36.4319 3.91192 35.9611 2.79013 35.123 1.96303C34.2848 1.13593 33.1481 0.671265 31.9628 0.671265H14.0861C10.5303 0.671265 7.12 2.06525 4.60561 4.54656C2.09122 7.02786 0.67865 10.3932 0.67865 13.9023V31.5438C0.67865 32.7135 1.14951 33.8353 1.98764 34.6624C2.82577 35.4895 3.96252 35.9541 5.14781 35.9541Z" fill="#999999"/>
</svg>
