<svg width="63" height="63" viewBox="0 0 63 63" fill="none" xmlns="http://www.w3.org/2000/svg">
<path d="M22.7344 0.312622H4.85777C3.67248 0.312622 2.53573 0.777284 1.6976 1.60439C0.859468 2.43149 0.388611 3.55328 0.388611 4.72298V22.3644C0.388611 23.5341 0.859468 24.6559 1.6976 25.483C2.53573 26.3101 3.67248 26.7748 4.85777 26.7748H22.7344C23.9197 26.7748 25.0565 26.3101 25.8946 25.483C26.7327 24.6559 27.2036 23.5341 27.2036 22.3644V4.72298C27.2036 3.55328 26.7327 2.43149 25.8946 1.60439C25.0565 0.777284 23.9197 0.312622 22.7344 0.312622ZM18.2653 17.9541H9.32694V9.13334H18.2653V17.9541ZM40.6111 26.7748H58.4877C59.673 26.7748 60.8098 26.3101 61.6479 25.483C62.486 24.6559 62.9569 23.5341 62.9569 22.3644V4.72298C62.9569 3.55328 62.486 2.43149 61.6479 1.60439C60.8098 0.777284 59.673 0.312622 58.4877 0.312622H40.6111C39.4258 0.312622 38.289 0.777284 37.4509 1.60439C36.6128 2.43149 36.1419 3.55328 36.1419 4.72298V22.3644C36.1419 23.5341 36.6128 24.6559 37.4509 25.483C38.289 26.3101 39.4258 26.7748 40.6111 26.7748ZM45.0802 9.13334H54.0186V17.9541H45.0802V9.13334ZM22.7344 35.5955H4.85777C3.67248 35.5955 2.53573 36.0601 1.6976 36.8872C0.859468 37.7144 0.388611 38.8361 0.388611 40.0058V57.6473C0.388611 58.817 0.859468 59.9388 1.6976 60.7659C2.53573 61.593 3.67248 62.0576 4.85777 62.0576H22.7344C23.9197 62.0576 25.0565 61.593 25.8946 60.7659C26.7327 59.9388 27.2036 58.817 27.2036 57.6473V40.0058C27.2036 38.8361 26.7327 37.7144 25.8946 36.8872C25.0565 36.0601 23.9197 35.5955 22.7344 35.5955ZM18.2653 53.2369H9.32694V44.4162H18.2653V53.2369ZM40.6111 48.8266C41.7964 48.8266 42.9331 48.3619 43.7712 47.5348C44.6094 46.7077 45.0802 45.5859 45.0802 44.4162C46.2655 44.4162 47.4023 43.9515 48.2404 43.1244C49.0785 42.2973 49.5494 41.1755 49.5494 40.0058C49.5494 38.8361 49.0785 37.7144 48.2404 36.8872C47.4023 36.0601 46.2655 35.5955 45.0802 35.5955H40.6111C39.4258 35.5955 38.289 36.0601 37.4509 36.8872C36.6128 37.7144 36.1419 38.8361 36.1419 40.0058V44.4162C36.1419 45.5859 36.6128 46.7077 37.4509 47.5348C38.289 48.3619 39.4258 48.8266 40.6111 48.8266ZM58.4877 35.5955C57.3024 35.5955 56.1657 36.0601 55.3275 36.8872C54.4894 37.7144 54.0186 38.8361 54.0186 40.0058V53.2369C52.8333 53.2369 51.6965 53.7016 50.8584 54.5287C50.0202 55.3558 49.5494 56.4776 49.5494 57.6473C49.5494 58.817 50.0202 59.9388 50.8584 60.7659C51.6965 61.593 52.8333 62.0576 54.0186 62.0576H58.4877C59.673 62.0576 60.8098 61.593 61.6479 60.7659C62.486 59.9388 62.9569 58.817 62.9569 57.6473V40.0058C62.9569 38.8361 62.486 37.7144 61.6479 36.8872C60.8098 36.0601 59.673 35.5955 58.4877 35.5955ZM40.6111 53.2369C39.7271 53.2369 38.8631 53.4956 38.1281 53.9802C37.3932 54.4648 36.8204 55.1536 36.4821 55.9595C36.1438 56.7654 36.0553 57.6522 36.2278 58.5077C36.4002 59.3632 36.8259 60.1491 37.4509 60.7659C38.0759 61.3827 38.8722 61.8027 39.7392 61.9729C40.6061 62.1431 41.5047 62.0557 42.3214 61.7219C43.138 61.3881 43.836 60.8228 44.327 60.0975C44.8181 59.3723 45.0802 58.5196 45.0802 57.6473C45.0802 56.4776 44.6094 55.3558 43.7712 54.5287C42.9331 53.7016 41.7964 53.2369 40.6111 53.2369Z" fill="#00C2FF"/>
</svg>
