<svg width="16" height="16" viewBox="0 0 16 16" fill="none" xmlns="http://www.w3.org/2000/svg">
<path d="M8 0C3.58065 0 0 3.58065 0 8C0 12.4194 3.58065 16 8 16C12.4194 16 16 12.4194 16 8C16 3.58065 12.4194 0 8 0ZM13.4677 10.9323C13.3548 11.1935 12.8839 11.3839 12.0226 11.5194C11.9774 11.5806 11.9419 11.8355 11.8839 12.0323C11.8484 12.1516 11.7645 12.2226 11.6226 12.2226H11.6161C11.4161 12.2226 11.2032 12.129 10.7839 12.129C10.2161 12.129 10.0194 12.2581 9.57742 12.571C9.10968 12.9032 8.66129 13.1871 7.99032 13.1581C7.3129 13.2097 6.74516 12.7968 6.42581 12.571C5.98064 12.2581 5.7871 12.129 5.21935 12.129C4.81613 12.129 4.56129 12.229 4.3871 12.229C4.2129 12.229 4.14516 12.1226 4.11935 12.0355C4.06129 11.8387 4.02581 11.5806 3.98065 11.5194C3.53548 11.4516 2.53548 11.2774 2.5129 10.829C2.50645 10.7129 2.5871 10.6097 2.70323 10.5903C4.19677 10.3452 4.86774 8.8129 4.89677 8.74839C4.89677 8.74516 4.9 8.74194 4.90323 8.73871C4.98387 8.57742 5 8.44194 4.95484 8.33548C4.84516 8.08064 4.37742 7.99032 4.18065 7.90968C3.67097 7.70968 3.6 7.47742 3.63226 7.31935C3.68387 7.04516 4.09677 6.87419 4.33871 6.9871C4.52903 7.07742 4.7 7.12258 4.84516 7.12258C4.95161 7.12258 5.02258 7.09677 5.05806 7.07742C5.0129 6.30645 4.90645 5.20645 5.18064 4.59032C5.90645 2.96774 7.44194 2.83871 7.89355 2.83871C7.9129 2.83871 8.09032 2.83548 8.10968 2.83548C9.22903 2.83548 10.3032 3.40968 10.829 4.5871C11.1032 5.20323 10.9968 6.3 10.9516 7.07419C10.9871 7.09355 11.0452 7.11613 11.1355 7.11935C11.2742 7.1129 11.4323 7.06774 11.6097 6.98387C11.7387 6.92258 11.9194 6.93226 12.0484 6.98387C12.2516 7.05806 12.3806 7.20323 12.3839 7.36774C12.3871 7.57742 12.2 7.75806 11.829 7.90323C11.7839 7.92258 11.729 7.93871 11.671 7.95806C11.4613 8.02581 11.1419 8.12581 11.0581 8.32903C11.0129 8.43548 11.0323 8.57097 11.1097 8.73226C11.1129 8.73548 11.1129 8.73871 11.1161 8.74193C11.1452 8.80645 11.8161 10.3387 13.3097 10.5839C13.4387 10.6161 13.5387 10.7613 13.4677 10.9323Z" fill="#111111"/>
</svg>
