<svg width="20" height="16" viewBox="0 0 20 16" fill="none" xmlns="http://www.w3.org/2000/svg">
<path d="M19.4783 1.89404C18.7615 2.21528 17.9914 2.43239 17.183 2.53006C18.0082 2.03017 18.6418 1.23857 18.9401 0.295396C18.1557 0.765896 17.2975 1.09739 16.4025 1.27556C15.6735 0.490584 14.635 0 13.4856 0C11.2786 0 9.48926 1.80852 9.48926 4.03911C9.48926 4.35573 9.52464 4.66397 9.59274 4.95967C6.27154 4.79117 3.32698 3.18314 1.35595 0.739375C1.01203 1.33594 0.814967 2.02986 0.814967 2.77C0.814967 4.17139 1.52052 5.40765 2.59274 6.13203C1.95814 6.11194 1.33749 5.93869 0.78263 5.62676C0.782402 5.64368 0.782402 5.66059 0.782402 5.67759C0.782402 7.63462 2.15988 9.26718 3.98795 9.63825C3.39948 9.80002 2.78222 9.82369 2.18332 9.70747C2.6918 11.3122 4.16766 12.4799 5.91629 12.5126C4.54863 13.5959 2.82549 14.2417 0.953294 14.2417C0.630685 14.2417 0.312641 14.2225 0 14.1852C1.76849 15.3313 3.86902 16 6.12576 16C13.4763 16 17.4957 9.84513 17.4957 4.50754C17.4957 4.33235 17.4919 4.15816 17.4842 3.98497C18.2665 3.41331 18.9418 2.70526 19.4783 1.89404" fill="white"/>
</svg>
