<svg width="134" height="24" viewBox="0 0 134 24" fill="none" xmlns="http://www.w3.org/2000/svg">
<path d="M33.252 13.302V18H30.7604V6H33.252V10.2564C34.005 9.51122 34.8466 9.13862 35.7768 9.13862C36.718 9.13862 37.5098 9.46262 38.1521 10.1106C38.7944 10.7586 39.1155 11.6226 39.1155 12.7026V18H36.6239V13.2372C36.6239 11.898 36.1201 11.2284 35.1124 11.2284C34.614 11.2284 34.1766 11.4066 33.8001 11.763C33.4347 12.1086 33.252 12.6216 33.252 13.302Z" fill="#111111"/>
<path d="M49.3476 16.6163C48.3399 17.5451 47.155 18.0095 45.793 18.0095C44.442 18.0095 43.3235 17.6045 42.4376 16.7945C41.5517 15.9737 41.1088 14.8775 41.1088 13.5059C41.1088 12.1343 41.5573 11.0436 42.4542 10.2336C43.3623 9.42355 44.4309 9.01855 45.6601 9.01855C46.8893 9.01855 47.9302 9.38036 48.7829 10.104C49.6466 10.8276 50.0785 11.8212 50.0785 13.0847V14.3807H43.5671C43.6446 14.8559 43.8993 15.2447 44.3312 15.5471C44.7631 15.8495 45.2503 16.0007 45.793 16.0007C46.6678 16.0007 47.3876 15.7145 47.9523 15.1421L49.3476 16.6163ZM47.5537 12.6473C47.4983 12.1289 47.299 11.7294 46.9557 11.4486C46.6124 11.1678 46.1916 11.0274 45.6933 11.0274C45.206 11.0274 44.7576 11.1732 44.3478 11.4648C43.9381 11.7564 43.7 12.1505 43.6336 12.6473H47.5537Z" fill="#111111"/>
<path d="M54.6304 18H52.1388V6H54.6304V18Z" fill="#111111"/>
<path d="M59.5491 18H57.0575V6H59.5491V18Z" fill="#111111"/>
<path d="M64.067 13.5221C64.067 14.2349 64.2719 14.8181 64.6816 15.2717C65.1024 15.7145 65.634 15.9359 66.2762 15.9359C66.9296 15.9359 67.4611 15.7145 67.8709 15.2717C68.2917 14.8181 68.5021 14.2349 68.5021 13.5221C68.5021 12.8093 68.2917 12.2261 67.8709 11.7726C67.4611 11.319 66.9296 11.0922 66.2762 11.0922C65.634 11.0922 65.1024 11.319 64.6816 11.7726C64.2719 12.2261 64.067 12.8093 64.067 13.5221ZM71.0103 13.5221C71.0103 14.7857 70.5618 15.8495 69.6648 16.7135C68.7678 17.5775 67.6383 18.0095 66.2762 18.0095C64.9253 18.0095 63.8013 17.5775 62.9043 16.7135C62.0073 15.8495 61.5588 14.7857 61.5588 13.5221C61.5588 12.2585 62.0073 11.1948 62.9043 10.3308C63.8013 9.45596 64.9253 9.01855 66.2762 9.01855C67.6383 9.01855 68.7678 9.45596 69.6648 10.3308C70.5618 11.1948 71.0103 12.2585 71.0103 13.5221Z" fill="#111111"/>
<path d="M78.2262 9.25879C79.2671 9.25879 80.1918 9.68539 81.0002 10.5386C81.8196 11.381 82.2294 12.4448 82.2294 13.73C82.2294 15.0152 81.8196 16.0898 81.0002 16.9538C80.1918 17.8178 79.2395 18.2498 78.1432 18.2498C77.0579 18.2498 76.1831 17.8232 75.5187 16.97V21.023H73.0271V9.40459H75.5187V10.3766C76.2828 9.63139 77.1853 9.25879 78.2262 9.25879ZM75.4855 13.7786C75.4855 14.4806 75.6848 15.0584 76.0835 15.512C76.4932 15.9548 76.986 16.1762 77.5618 16.1762C78.1376 16.1762 78.6415 15.9548 79.0734 15.512C79.5052 15.0584 79.7212 14.4806 79.7212 13.7786C79.7212 13.0766 79.5108 12.488 79.09 12.0128C78.6692 11.5376 78.1653 11.3 77.5784 11.3C76.9915 11.3 76.4932 11.5376 76.0835 12.0128C75.6848 12.4772 75.4855 13.0658 75.4855 13.7786Z" fill="#111111"/>
<path d="M88.9569 11.4229C88.215 11.4229 87.6613 11.6821 87.2958 12.2004C86.9304 12.708 86.7477 13.383 86.7477 14.2254V18H84.2561V9.28447H86.7477V10.4347C87.0688 10.0783 87.4675 9.77587 87.9437 9.52747C88.4309 9.27907 88.9237 9.14947 89.422 9.13867L89.4386 11.4229H88.9569Z" fill="#111111"/>
<path d="M93.1149 13.5221C93.1149 14.2349 93.3198 14.8181 93.7295 15.2717C94.1503 15.7145 94.6818 15.9359 95.3241 15.9359C95.9775 15.9359 96.509 15.7145 96.9187 15.2717C97.3395 14.8181 97.5499 14.2349 97.5499 13.5221C97.5499 12.8093 97.3395 12.2261 96.9187 11.7726C96.509 11.319 95.9775 11.0922 95.3241 11.0922C94.6818 11.0922 94.1503 11.319 93.7295 11.7726C93.3198 12.2261 93.1149 12.8093 93.1149 13.5221ZM100.058 13.5221C100.058 14.7857 99.6096 15.8495 98.7127 16.7135C97.8157 17.5775 96.6862 18.0095 95.3241 18.0095C93.9731 18.0095 92.8491 17.5775 91.9521 16.7135C91.0552 15.8495 90.6067 14.7857 90.6067 13.5221C90.6067 12.2585 91.0552 11.1948 91.9521 10.3308C92.8491 9.45596 93.9731 9.01855 95.3241 9.01855C96.6862 9.01855 97.8157 9.45596 98.7127 10.3308C99.6096 11.1948 100.058 12.2585 100.058 13.5221Z" fill="#111111"/>
<path d="M104.902 9.0456V9.6288H107.062V11.3784H104.902V18.0234H102.394V11.3784H101.348V9.6288H102.394V9.0942C102.394 8.1438 102.687 7.3932 103.274 6.8424C103.872 6.2808 104.609 6 105.484 6C106.369 6 107.172 6.324 107.892 6.972L106.995 8.6082C106.63 8.1978 106.226 7.9926 105.783 7.9926C105.528 7.9926 105.317 8.0844 105.151 8.268C104.985 8.4408 104.902 8.7 104.902 9.0456Z" fill="#111111"/>
<path d="M111.27 18.0234H108.778V9.60542H111.27V18.0234ZM108.978 8.4462C108.701 8.1654 108.562 7.8252 108.562 7.4256C108.562 7.026 108.701 6.6912 108.978 6.4212C109.265 6.1404 109.614 6 110.024 6C110.434 6 110.777 6.1404 111.054 6.4212C111.342 6.6912 111.486 7.026 111.486 7.4256C111.486 7.8252 111.342 8.1654 111.054 8.4462C110.777 8.7162 110.434 8.8512 110.024 8.8512C109.614 8.8512 109.265 8.7162 108.978 8.4462Z" fill="#111111"/>
<path d="M116.286 17.9999H113.794V5.97949H116.286V17.9999Z" fill="#111111"/>
<path d="M126.617 16.6066C125.609 17.5354 124.424 17.9998 123.062 17.9998C121.711 17.9998 120.593 17.5948 119.707 16.7848C118.821 15.964 118.378 14.8678 118.378 13.4962C118.378 12.1246 118.827 11.0338 119.724 10.2238C120.632 9.41379 121.577 9.00879 122.806 9.00879C124.036 9.00879 125.2 9.37059 126.052 10.0942C126.916 10.8178 127.348 11.8114 127.348 13.075V14.371H120.836C120.914 14.8462 121.169 15.235 121.601 15.5374C122.032 15.8398 122.52 15.991 123.062 15.991C123.937 15.991 124.657 15.7048 125.222 15.1324L126.617 16.6066ZM124.823 12.6376C124.768 12.1192 124.568 11.7196 124.225 11.4388C123.882 11.158 123.461 11.0176 122.963 11.0176C122.475 11.0176 122.027 11.1634 121.617 11.455C121.207 11.7466 120.969 12.1408 120.903 12.6376H124.823Z" fill="#111111"/>
<path d="M129.913 0.48H128.95V3H128.298V0.48H127.348V0H129.913V0.48ZM131.034 0L131.843 2.16667L132.649 0H133.5V3H132.842V2.16667L132.914 0.746666L132.063 3H131.619L130.771 0.75L130.836 2.16667V3H130.189V0H131.034Z" fill="#111111"/>
<path d="M5.72844 12.1788C6.38231 11.8107 7.2184 12.0292 7.5959 12.6669C8.07585 13.4776 8.76615 14.1509 9.59745 14.6189C10.4287 15.087 11.3717 15.3335 12.3316 15.3335C13.2915 15.3335 14.2345 15.087 15.0658 14.6189C15.8971 14.1509 16.5873 13.4776 17.0673 12.6669C17.4448 12.0292 18.2809 11.8107 18.9347 12.1788C19.5887 12.5471 19.8126 13.3625 19.4351 14.0002C18.7152 15.2163 17.6798 16.2262 16.4328 16.9283C15.1859 17.6304 13.7714 18 12.3316 18C10.8918 18 9.47729 17.6304 8.23037 16.9283C6.98344 16.2262 5.94797 15.2163 5.22806 14.0002C4.85055 13.3625 5.07458 12.5471 5.72844 12.1788Z" fill="white"/>
<path fill-rule="evenodd" clip-rule="evenodd" d="M12.3041 0C5.50875 0 0 5.37258 0 12C0 18.6274 5.50875 24 12.3041 24H23.3779C24.0574 24 24.6083 23.4628 24.6083 22.8V12C24.6083 5.37258 19.0995 0 12.3041 0ZM7.59593 12.6668C7.21843 12.0292 6.38233 11.8107 5.72847 12.1788C5.0746 12.5471 4.85058 13.3625 5.22808 14.0002C5.948 15.2162 6.98347 16.2262 8.23039 16.9283C9.47732 17.6304 10.8918 18 12.3316 18C13.7714 18 15.1859 17.6304 16.4328 16.9283C17.6798 16.2262 18.7152 15.2162 19.4351 14.0002C19.8126 13.3625 19.5887 12.5471 18.9347 12.1788C18.2809 11.8107 17.4448 12.0292 17.0673 12.6668C16.5873 13.4776 15.8971 14.1509 15.0658 14.6189C14.2345 15.087 13.2916 15.3335 12.3316 15.3335C11.3717 15.3335 10.4288 15.087 9.59747 14.6189C8.76618 14.1509 8.07588 13.4776 7.59593 12.6668Z" fill="#111111"/>
</svg>
