<svg width="19" height="18" viewBox="0 0 19 18" fill="none" xmlns="http://www.w3.org/2000/svg">
<path d="M1.04765 12.1667C1.04765 12.1667 1.17225 13.6917 1.2012 14.1726C1.23981 14.8175 1.489 15.5378 1.9049 16.038C2.4919 16.7469 3.18332 16.997 4.10638 16.9988C5.19176 17.0005 13.0842 17.0005 14.1696 16.9988C15.0927 16.997 15.7841 16.7469 16.3711 16.038C16.787 15.5378 17.0362 14.8175 17.0757 14.1726C17.1038 13.6917 17.2283 12.1667 17.2283 12.1667" stroke="#200E32" stroke-width="2" stroke-linecap="round" stroke-linejoin="round"/>
<path d="M6.04217 3.26289V2.93737C6.04217 1.8669 6.90907 1 7.97953 1H10.2451C11.3146 1 12.1824 1.8669 12.1824 2.93737L12.1833 3.26289" stroke="#200E32" stroke-width="2" stroke-linecap="round" stroke-linejoin="round"/>
<path d="M9.11212 13.2205V12.0851" stroke="#200E32" stroke-width="2" stroke-linecap="round" stroke-linejoin="round"/>
<path fill-rule="evenodd" clip-rule="evenodd" d="M1 5.94759V8.98964C2.68291 10.0996 4.69925 10.877 6.91213 11.185C7.17711 10.2189 8.0484 9.51083 9.10746 9.51083C10.1498 9.51083 11.0387 10.2189 11.2861 11.1937C13.5078 10.8858 15.532 10.1084 17.2237 8.98964V5.94759C17.2237 4.46122 16.0278 3.2644 14.5414 3.2644H3.69108C2.20471 3.2644 1 4.46122 1 5.94759Z" stroke="#200E32" stroke-width="2" stroke-linecap="round" stroke-linejoin="round"/>
</svg>
